<?xml version="1.0" encoding="UTF-8" standalone="no"?>
<!-- Created with Inkscape (http://www.inkscape.org/) -->

<svg
   width="54.600349mm"
   height="10.007787mm"
   viewBox="0 0 54.600349 10.007787"
   version="1.1"
   id="svg1"
   xml:space="preserve"
   xmlns="http://www.w3.org/2000/svg"
   xmlns:svg="http://www.w3.org/2000/svg"><defs
     id="defs1" /><g
     id="layer1"
     transform="translate(-877.45827,-326.87219)"><g
       id="g64"><path
         style="fill:#f4841e;fill-opacity:1;stroke-width:0.133739"
         d="m 877.57953,336.69968 c 0.0223,-0.0587 1.2041,-2.27609 2.62678,-4.92759 2.20457,-4.10875 2.60871,-4.79187 2.73584,-4.62438 0.082,0.1081 1.07787,1.93299 2.21305,4.05533 1.13513,2.12234 2.27757,4.25132 2.53869,4.73106 l 0.47472,0.87225 h -2.81602 -2.81603 l -0.28314,-0.50375 -0.28314,-0.50375 -0.24394,0.50375 -0.244,0.50375 h -1.97145 c -1.09632,0 -1.95367,-0.0473 -1.93136,-0.10667 z m 10.14625,-3.29064 c -0.99256,-1.86459 -2.17391,-4.08272 -2.62516,-4.92918 l -0.82049,-1.53903 2.80565,10e-4 2.8056,0.001 0.28933,0.50641 0.28928,0.50641 0.24573,-0.50734 0.24572,-0.50733 h 1.97145 c 1.11127,0 1.95395,0.047 1.93137,0.10779 -0.11286,0.30338 -5.22229,9.75006 -5.27364,9.7503 -0.0329,1.3e-4 -0.87228,-1.52529 -1.86484,-3.38988 z m 7.8567,2.52506 c 0.26095,-0.47974 0.89018,-1.64409 1.39837,-2.58743 l 0.92391,-1.71517 -1.25662,-2.34533 -1.25669,-2.34534 h 1.96972 1.96978 l 0.25772,0.50518 0.25771,0.50518 0.29831,-0.50518 0.29837,-0.50518 h 2.75491 c 1.51523,0 2.75497,0.0351 2.75497,0.0781 0,0.0429 -1.16998,2.26267 -2.59996,4.93276 l -2.59996,4.85471 h -2.8225 -2.82243 z m 6.64083,0.79224 c 0,-0.20652 5.23427,-9.77169 5.30469,-9.69386 0.044,0.0488 1.12147,2.03786 2.39394,4.42003 1.27246,2.38216 2.44528,4.56129 2.60626,4.84252 l 0.29262,0.51132 h -2.82991 -2.82997 l -0.25771,-0.50517 -0.25772,-0.50518 -0.29836,0.50518 -0.29831,0.50517 h -1.91279 c -1.052,0 -1.91274,-0.036 -1.91274,-0.08 z m 11.06861,-4.84997 v -4.93554 h 2.10299 2.10304 l 0.2455,0.48125 c 0.13505,0.26468 0.27037,0.48124 0.30076,0.48124 0.0301,0 0.16577,-0.21656 0.30076,-0.48124 l 0.24556,-0.48125 h 1.93254 c 1.06292,0 1.91452,0.0415 1.89244,0.0922 -0.0223,0.0507 -0.56768,1.09983 -1.21247,2.33138 l -1.17238,2.23918 1.4316,2.57129 1.43154,2.5713 -1.93894,0.0332 c -1.06638,0.0182 -2.00268,0.009 -2.08057,-0.0212 -0.0779,-0.0299 -0.37776,-0.47795 -0.66637,-0.99567 l -0.52463,-0.94131 -0.0602,0.9625 -0.0602,0.96249 -2.13549,0.0328 -2.13555,0.0328 z m 12.36338,0.11322 -0.0312,-4.81677 -1.32342,1.76972 c -0.72793,0.97335 -1.38939,1.85507 -1.47002,1.95937 -0.11693,0.15129 -0.14731,-0.23017 -0.15038,-1.88571 l -0.006,-2.07537 h 4.69219 4.69213 v 2.06936 c 0,1.13814 -0.044,2.01792 -0.0976,1.95505 -0.0535,-0.0629 -0.71694,-0.95012 -1.4738,-1.97169 l -1.37618,-1.85739 -0.0312,4.83509 -0.0312,4.8351 h -1.68162 -1.68167 z"
         id="path63" /><path
         id="path64"
         style="fill:#6e4a1e;fill-opacity:1;stroke-width:0.133739"
         d="m 890.97505,326.91168 c -0.19716,0.39201 -0.39455,0.7839 -0.5916,1.17597 0.58368,1.0768 1.14076,2.1686 1.75868,3.22604 0.0662,0.0992 0.11308,0.21851 0.21422,0.28828 0.12613,-0.0763 0.17073,-0.23092 0.25197,-0.34728 0.6579,-1.15658 1.28552,-2.33076 1.89992,-3.51105 0.10321,-0.21521 0.23017,-0.42266 0.30611,-0.64911 0,-0.13777 -0.17051,-0.15575 -0.27444,-0.17234 -0.54075,-0.0595 -1.08657,-0.0422 -1.62982,-0.0494 -0.63849,0 -1.27693,0 -1.91542,0 -0.007,0.013 -0.0128,0.0259 -0.0195,0.0389 z m 4.44266,0.0637 c 0.58954,1.17649 1.22145,2.33095 1.84806,3.48819 0.20748,0.3644 0.39745,0.74035 0.62611,1.09186 0.0457,0.097 0.10561,0.0262 0.14498,-0.034 0.44545,-0.74018 0.84607,-1.50638 1.26075,-2.26413 0.20714,-0.38243 0.41434,-0.76484 0.62154,-1.14726 -0.1932,-0.41245 -0.38652,-0.82486 -0.57961,-1.23736 -1.32454,0 -2.64903,0 -3.97351,0 0.0173,0.0342 0.0346,0.0684 0.0518,0.10266 z m 23.15208,-0.0627 c -0.18383,0.39647 -0.40609,0.77949 -0.52998,1.20052 -0.0184,0.13525 0.0817,0.25281 0.12668,0.37504 0.44401,0.90239 0.92152,1.78809 1.43099,2.6553 0.0934,0.14454 0.16922,0.30517 0.29039,0.42886 0.0976,0.0552 0.14625,-0.0884 0.19203,-0.15045 0.4808,-0.82055 0.91962,-1.66459 1.36547,-2.50466 0.31219,-0.59991 0.63408,-1.19585 0.91477,-1.81148 0.0335,-0.0568 0.0446,-0.14658 -0.0362,-0.16466 -0.2963,-0.052 -0.60035,-0.0443 -0.90045,-0.0576 -0.94454,-0.0197 -1.88937,-0.007 -2.83409,-0.0108 -0.007,0.0133 -0.0128,0.0266 -0.0195,0.04 z m -38.52373,5.26703 c -0.12256,0.11532 -0.19176,0.2789 -0.28314,0.4195 -0.5083,0.88783 -0.97316,1.8002 -1.46032,2.69998 -0.28141,0.52692 -0.56294,1.05379 -0.84435,1.58073 1.33034,0 2.66068,0 3.99102,0 0.2014,-0.40493 0.40252,-0.80997 0.60392,-1.21489 -0.57933,-1.07203 -1.13267,-2.15872 -1.74551,-3.21173 -0.0688,-0.10214 -0.11565,-0.22632 -0.21902,-0.29945 -0.0139,0.009 -0.0284,0.0172 -0.0424,0.0259 z m 24.67227,0.069 c -0.14146,0.0801 -0.21377,0.24081 -0.30817,0.3674 -0.42817,0.67462 -0.77633,1.39531 -1.16011,2.09531 -0.38797,0.72347 -0.77722,1.44622 -1.16731,2.16854 1.32443,0 2.64886,0 3.97324,0 0.19248,-0.38285 0.42588,-0.74892 0.56322,-1.15664 0.0212,-0.11525 -0.0692,-0.21597 -0.10723,-0.32006 -0.47277,-0.9462 -0.97532,-1.87787 -1.49516,-2.79895 -0.0768,-0.11593 -0.12981,-0.25623 -0.23235,-0.35064 -0.0178,-0.0144 -0.0457,-0.0104 -0.0661,-0.005 z" /></g></g></svg>
