<svg width="497" height="29" viewBox="0 0 497 29" fill="none" xmlns="http://www.w3.org/2000/svg">
<path d="M1 28L25.6491 1" stroke="#F8861E" stroke-width="2"/>
<path d="M50.9303 28L75.5794 1" stroke="#F8861E" stroke-width="2"/>
<path d="M25.6492 28L50.2983 1" stroke="#F8861E" stroke-width="2"/>
<path d="M76.2115 28L100.861 1" stroke="#F8861E" stroke-width="2"/>
<path d="M13.0085 28L37.6577 1" stroke="#F8861E" stroke-width="2"/>
<path d="M63.5709 28L88.2201 1" stroke="#F8861E" stroke-width="2"/>
<path d="M38.2898 28L62.9389 1" stroke="#F8861E" stroke-width="2"/>
<path d="M88.8521 28L113.501 1" stroke="#F8861E" stroke-width="2"/>
<path d="M202.617 28L227.267 1" stroke="#F8861E" stroke-width="2"/>
<path d="M253.18 28L277.829 1" stroke="#F8861E" stroke-width="2"/>
<path d="M227.898 28L252.548 1" stroke="#F8861E" stroke-width="2"/>
<path d="M278.461 28L303.11 1" stroke="#F8861E" stroke-width="2"/>
<path d="M215.258 28L239.907 1" stroke="#F8861E" stroke-width="2"/>
<path d="M265.82 28L290.469 1" stroke="#F8861E" stroke-width="2"/>
<path d="M240.539 28L265.188 1" stroke="#F8861E" stroke-width="2"/>
<path d="M291.102 28L315.751 1" stroke="#F8861E" stroke-width="2"/>
<path d="M101.493 28L126.142 1" stroke="#F8861E" stroke-width="2"/>
<path d="M152.055 28L176.704 1" stroke="#F8861E" stroke-width="2"/>
<path d="M126.774 28L151.423 1" stroke="#F8861E" stroke-width="2"/>
<path d="M177.336 28L201.985 1" stroke="#F8861E" stroke-width="2"/>
<path d="M114.133 28L138.782 1" stroke="#F8861E" stroke-width="2"/>
<path d="M164.696 28L189.345 1" stroke="#F8861E" stroke-width="2"/>
<path d="M139.414 28L164.064 1" stroke="#F8861E" stroke-width="2"/>
<path d="M189.977 28L214.626 1" stroke="#F8861E" stroke-width="2"/>
<path d="M303.742 28L328.391 1" stroke="#F8861E" stroke-width="2"/>
<path d="M354.304 28L378.954 1" stroke="#F8861E" stroke-width="2"/>
<path d="M329.023 28L353.672 1" stroke="#F8861E" stroke-width="2"/>
<path d="M379.586 28L404.235 1" stroke="#F8861E" stroke-width="2"/>
<path d="M316.383 28L341.032 1" stroke="#F8861E" stroke-width="2"/>
<path d="M366.945 28L391.594 1" stroke="#F8861E" stroke-width="2"/>
<path d="M341.664 28L366.313 1" stroke="#F8861E" stroke-width="2"/>
<path d="M392.226 28L416.875 1" stroke="#F8861E" stroke-width="2"/>
<path d="M404.867 28L429.516 1" stroke="#F8861E" stroke-width="2"/>
<path d="M455.429 28L480.078 1" stroke="#F8861E" stroke-width="2"/>
<path d="M430.148 28L454.797 1" stroke="#F8861E" stroke-width="2"/>
<path d="M480.71 28L505.359 1" stroke="#F8861E" stroke-width="2"/>
<path d="M417.507 28L442.157 1" stroke="#F8861E" stroke-width="2"/>
<path d="M468.07 28L492.719 1" stroke="#F8861E" stroke-width="2"/>
<path d="M442.789 28L467.438 1" stroke="#F8861E" stroke-width="2"/>
<path d="M493.351 28L518 1" stroke="#F8861E" stroke-width="2"/>
</svg>
