<svg width="411" height="22" viewBox="0 0 411 22" fill="none" xmlns="http://www.w3.org/2000/svg">
<path d="M1 20.5L20.5 1M40.5 20.5L60 1M20.5 20.5L40 1M60.5 20.5L80 1M10.5 20.5L30 1M50.5 20.5L70 1M30.5 20.5L50 1M70.5 20.5L90 1M160.5 20.5L180 1M200.5 20.5L220 1M180.5 20.5L200 1M220.5 20.5L240 1M170.5 20.5L190 1M210.5 20.5L230 1M190.5 20.5L210 1M230.5 20.5L250 1M80.5 20.5L100 1M120.5 20.5L140 1M100.5 20.5L120 1M140.5 20.5L160 1M90.5 20.5L110 1M130.5 20.5L150 1M110.5 20.5L130 1M150.5 20.5L170 1M240.5 20.5L260 1M280.5 20.5L300 1M260.5 20.5L280 1M300.5 20.5L320 1M250.5 20.5L270 1M290.5 20.5L310 1M270.5 20.5L290 1M310.5 20.5L330 1M320.5 20.5L340 1M360.5 20.5L380 1M340.5 20.5L360 1M380.5 20.5L400 1M330.5 20.5L350 1M370.5 20.5L390 1M350.5 20.5L370 1M390.5 20.5L410 1" stroke="#F8861E" stroke-width="2"/>
</svg>
