<svg width="53" height="43" viewBox="0 0 53 43" fill="none" xmlns="http://www.w3.org/2000/svg">
<g filter="url(#filter0_d_1059_134)">
<path d="M46 9.92635V32H11.3553L7 13.3889H10.1675L10.9594 5.38177C10.9594 5.38177 16.741 3.06277 20.6599 3.00127C24.8034 2.93626 30.9543 5.38177 30.9543 5.38177L33.3299 9.92635H46Z" fill="#F49343" fill-opacity="0.3" style="mix-blend-mode:soft-light" shape-rendering="crispEdges"/>
<path d="M46 32V9.92635H33.3299L30.9543 5.38177C30.9543 5.38177 24.8034 2.93626 20.6599 3.00127C16.741 3.06277 10.9594 5.38177 10.9594 5.38177L10.1675 13.3889H7M46 32L39.467 13.3889H7M46 32H11.3553L7 13.3889" stroke="#F8861E" stroke-width="2" stroke-linecap="round" shape-rendering="crispEdges"/>
</g>
<defs>
<filter id="filter0_d_1059_134" x="0.53877" y="0.8" width="51.6612" height="41.4" filterUnits="userSpaceOnUse" color-interpolation-filters="sRGB">
<feFlood flood-opacity="0" result="BackgroundImageFix"/>
<feColorMatrix in="SourceAlpha" type="matrix" values="0 0 0 0 0 0 0 0 0 0 0 0 0 0 0 0 0 0 127 0" result="hardAlpha"/>
<feOffset dy="4"/>
<feGaussianBlur stdDeviation="2.6"/>
<feComposite in2="hardAlpha" operator="out"/>
<feColorMatrix type="matrix" values="0 0 0 0 0 0 0 0 0 0 0 0 0 0 0 0 0 0 0.31 0"/>
<feBlend mode="normal" in2="BackgroundImageFix" result="effect1_dropShadow_1059_134"/>
<feBlend mode="normal" in="SourceGraphic" in2="effect1_dropShadow_1059_134" result="shape"/>
</filter>
</defs>
</svg>
