<svg width="1702" height="309" viewBox="0 0 1702 309" fill="none" xmlns="http://www.w3.org/2000/svg">
<path fill-rule="evenodd" clip-rule="evenodd" d="M210 2.5939C210 3.4699 210.9 4.4229 212 4.7099C213.503 5.1029 214 6.0739 214 8.6169C214 11.3329 214.394 11.9999 216 11.9999C217.667 11.9999 218 12.6669 218 15.9999C218 18.8339 218.424 19.9999 219.455 19.9999C220.325 19.9999 221.173 21.4049 221.566 23.4999C221.927 25.4249 222.797 26.9999 223.5 26.9999C224.203 26.9999 225.073 28.5749 225.434 30.4999C225.827 32.5949 226.675 33.9999 227.545 33.9999C228.43 33.9999 229 34.9789 229 36.4999C229 38.3329 229.533 38.9999 231 38.9999C232.619 38.9999 233 39.6669 233 42.4999C233 44.8479 233.465 45.9999 234.412 45.9999C235.28 45.9999 236.085 47.5409 236.5 49.9999C236.884 52.2699 237.738 53.9999 238.477 53.9999C239.192 53.9999 240.073 55.5749 240.434 57.4999C240.827 59.5949 241.675 60.9999 242.545 60.9999C243.548 60.9999 244 62.1159 244 64.5939C244 67.3459 244.468 68.3099 246 68.7099C247.503 69.1029 248 70.0739 248 72.6169C248 75.3329 248.394 75.9999 250 75.9999C251.619 75.9999 252 76.6669 252 79.4999C252 81.8479 252.465 82.9999 253.412 82.9999C254.28 82.9999 255.085 84.5409 255.5 86.9999C255.915 89.4589 256.72 90.9999 257.588 90.9999C258.365 90.9999 259 91.8999 259 92.9999C259 94.3329 259.667 94.9999 261 94.9999C262.667 94.9999 263 95.6669 263 98.9999C263 101.834 263.424 103 264.455 103C265.325 103 266.173 104.405 266.566 106.5C266.927 108.425 267.797 110 268.5 110C269.203 110 270.073 111.575 270.434 113.5C270.827 115.595 271.675 117 272.545 117C273.576 117 274 118.166 274 121C274 124.333 274.333 125 276 125C277.606 125 278 125.667 278 128.383C278 130.926 278.497 131.897 280 132.29C281.532 132.69 282 133.654 282 136.406C282 138.934 282.445 140 283.5 140C284.333 140 285 140.889 285 142C285 143.333 285.667 144 287 144C288.629 144 289 144.667 289 147.594C289 150.346 289.468 151.31 291 151.71C292.503 152.103 293 153.074 293 155.617C293 157.911 293.468 159 294.455 159C295.325 159 296.173 160.405 296.566 162.5C296.927 164.425 297.808 166 298.523 166C299.262 166 300.116 167.73 300.5 170C300.884 172.27 301.738 174 302.477 174C303.192 174 304.073 175.575 304.434 177.5C304.827 179.595 305.675 181 306.545 181C307.532 181 308 182.089 308 184.383C308 186.926 308.497 187.897 310 188.29C311.197 188.603 312 189.654 312 190.906C312 192.058 312.625 193 313.389 193C314.184 193 315.058 194.495 315.434 196.5C315.827 198.595 316.675 200 317.545 200C318.548 200 319 201.116 319 203.594C319 206.346 319.468 207.31 321 207.71C322.503 208.103 323 209.074 323 211.617C323 214.333 323.394 215 325 215C326.667 215 327 215.667 327 219C327 221.834 327.424 223 328.455 223C329.325 223 330.173 224.405 330.566 226.5C330.927 228.425 331.797 230 332.5 230C333.203 230 334.073 231.575 334.434 233.5C334.795 235.425 335.688 237 336.418 237C337.192 237 338.011 238.664 338.384 241C338.798 243.588 339.549 245 340.512 245C341.333 245 342 245.896 342 247C342 248.1 342.635 249 343.412 249C344.28 249 345.085 250.541 345.5 253C345.915 255.459 346.72 257 347.588 257C348.535 257 349 258.152 349 260.5C349 263.333 349.381 264 351 264C352.629 264 353 264.667 353 267.594C353 270.346 353.468 271.31 355 271.71C356.503 272.103 357 273.074 357 275.617C357 277.837 357.477 279 358.389 279C359.184 279 360.058 280.495 360.434 282.5C360.804 284.473 361.687 286 362.457 286C363.273 286 364.097 287.614 364.5 290C364.915 292.459 365.72 294 366.588 294C367.365 294 368 294.9 368 296C368 297.333 368.667 298 370 298C371.672 298 372 298.667 372 302.06V306.121L375.75 305.81C378.762 305.561 379.563 305.057 379.82 303.25C379.995 302.012 380.783 301 381.57 301C382.538 301 383 299.869 383 297.5C383 294.667 383.381 294 385 294C386.667 294 387 293.333 387 290C387 286.667 387.333 286 389 286C390.619 286 391 285.333 391 282.5C391 280.104 391.459 279 392.455 279C393.325 279 394.173 277.595 394.566 275.5C394.927 273.575 395.808 272 396.523 272C397.262 272 398.116 270.27 398.5 268C398.915 265.541 399.72 264 400.588 264C401.535 264 402 262.848 402 260.5C402 257.667 402.381 257 404 257C405.467 257 406 256.333 406 254.5C406 252.979 406.57 252 407.455 252C408.325 252 409.173 250.595 409.566 248.5C409.942 246.495 410.816 245 411.611 245C412.539 245 413 243.806 413 241.406C413 238.654 413.468 237.69 415 237.29C416.503 236.897 417 235.926 417 233.383C417 230.667 417.394 230 419 230C420.619 230 421 229.333 421 226.5C421 224.152 421.465 223 422.412 223C423.28 223 424.085 221.459 424.5 219C424.884 216.73 425.738 215 426.477 215C427.192 215 428.073 213.425 428.434 211.5C428.797 209.563 429.69 208 430.434 208C431.178 208 432.071 206.437 432.434 204.5C432.827 202.405 433.675 201 434.545 201C435.43 201 436 200.021 436 198.5C436 196.979 436.57 196 437.455 196C438.325 196 439.173 194.595 439.566 192.5C439.927 190.575 440.808 189 441.523 189C442.262 189 443.116 187.27 443.5 185C443.915 182.541 444.72 181 445.588 181C446.535 181 447 179.848 447 177.5C447 174.667 447.381 174 449 174C450.667 174 451 173.333 451 170C451 166.667 451.333 166 453 166C454.619 166 455 165.333 455 162.5C455 160.18 455.468 159 456.389 159C457.184 159 458.058 157.505 458.434 155.5C458.827 153.405 459.675 152 460.545 152C461.43 152 462 151.021 462 149.5C462 147.667 462.533 147 464 147C465.619 147 466 146.333 466 143.5C466 141.068 466.454 140 467.488 140C468.451 140 469.202 138.588 469.616 136C469.989 133.664 470.808 132 471.582 132C472.312 132 473.205 130.425 473.566 128.5C473.942 126.495 474.816 125 475.611 125C476.523 125 477 123.837 477 121.617C477 119.074 477.497 118.103 479 117.71C480.532 117.31 481 116.346 481 113.594C481 110.667 481.371 110 483 110C484.606 110 485 109.333 485 106.617C485 104.074 485.497 103.103 487 102.71C488.197 102.397 489 101.346 489 100.094C489 98.8989 489.644 97.9999 490.5 97.9999C491.548 97.9999 492 96.9439 492 94.4999C492 91.6669 492.381 90.9999 494 90.9999C495.606 90.9999 496 90.3329 496 87.6169C496 85.0739 496.497 84.1029 498 83.7099C499.532 83.3099 500 82.3459 500 79.5939C500 77.1159 500.452 75.9999 501.455 75.9999C502.325 75.9999 503.173 74.5949 503.566 72.4999C503.927 70.5749 504.808 68.9999 505.523 68.9999C506.262 68.9999 507.116 67.2699 507.5 64.9999C507.915 62.5409 508.72 60.9999 509.588 60.9999C510.535 60.9999 511 59.8479 511 57.4999C511 54.6669 511.381 53.9999 513 53.9999C514.467 53.9999 515 53.3329 515 51.4999C515 49.9789 515.57 48.9999 516.455 48.9999C517.325 48.9999 518.173 47.5949 518.566 45.4999C518.942 43.4949 519.816 41.9999 520.611 41.9999C521.532 41.9999 522 40.8199 522 38.4999C522 35.6669 522.381 34.9999 524 34.9999C525.667 34.9999 526 34.3329 526 30.9999C526 27.6669 526.333 26.9999 528 26.9999C529.606 26.9999 530 26.3329 530 23.6169C530 21.0739 530.497 20.1029 532 19.7099C533.532 19.3099 534 18.3459 534 15.5939C534 13.1939 534.461 11.9999 535.389 11.9999C536.184 11.9999 537.058 10.5049 537.434 8.4999C537.827 6.4049 538.675 4.9999 539.545 4.9999C540.345 4.9999 541 4.0999 541 2.9999C541 1.0219 540.333 0.999897 480.5 0.999897C427.389 0.999897 420 1.1829 420 2.4999C420 3.3249 419.325 3.9999 418.5 3.9999C417.567 3.9999 417 4.9439 417 6.4999C417 8.0209 416.43 8.9999 415.545 8.9999C414.675 8.9999 413.827 10.4049 413.434 12.4999C413.073 14.4249 412.192 15.9999 411.477 15.9999C410.738 15.9999 409.884 17.7299 409.5 19.9999C409.085 22.4589 408.28 23.9999 407.412 23.9999C406.465 23.9999 406 25.1519 406 27.4999C406 30.8159 405.821 30.9999 402.588 30.9999C399.386 30.9999 399.134 30.7529 398.5 26.9999C398.085 24.5409 397.28 22.9999 396.412 22.9999C395.465 22.9999 395 21.8479 395 19.4999C395 16.6669 394.619 15.9999 393 15.9999C391.371 15.9999 391 15.3329 391 12.4059C391 9.6539 390.532 8.68989 389 8.28989C387.497 7.89689 387 6.92589 387 4.38289V0.999897H298.5C218.189 0.999897 210 1.1469 210 2.5939ZM559.375 4.1249C559.719 5.8439 560 7.6439 560 8.1249C560 8.6059 560.655 8.9999 561.455 8.9999C562.325 8.9999 563.173 10.4049 563.566 12.4999C563.942 14.5049 564.816 15.9999 565.611 15.9999C566.532 15.9999 567 17.1799 567 19.4999C567 22.3329 567.381 22.9999 569 22.9999C570.667 22.9999 571 23.6669 571 26.9999C571 30.3329 571.333 30.9999 573 30.9999C574.619 30.9999 575 31.6669 575 34.4999C575 36.9439 575.452 37.9999 576.5 37.9999C577.356 37.9999 578 38.8989 578 40.0939C578 41.3459 578.803 42.3969 580 42.7099C581.503 43.1029 582 44.0739 582 46.6169C582 49.3329 582.394 49.9999 584 49.9999C585.606 49.9999 586 50.6669 586 53.3829C586 55.9259 586.497 56.8969 588 57.2899C589.532 57.6899 590 58.6539 590 61.4059C590 63.8059 590.461 64.9999 591.389 64.9999C592.184 64.9999 593.058 66.4949 593.434 68.4999C593.795 70.4249 594.688 71.9999 595.418 71.9999C596.192 71.9999 597.011 73.6639 597.384 75.9999C597.798 78.5879 598.549 79.9999 599.512 79.9999C600.546 79.9999 601 81.0679 601 83.4999C601 86.3329 601.381 86.9999 603 86.9999C604.467 86.9999 605 87.6669 605 89.4999C605 91.0209 605.57 91.9999 606.455 91.9999C607.325 91.9999 608.173 93.4049 608.566 95.4999C608.942 97.5049 609.816 98.9999 610.611 98.9999C611.532 98.9999 612 100.18 612 102.5C612 105.333 612.381 106 614 106C615.667 106 616 106.667 616 110C616 113.333 616.333 114 618 114C619.619 114 620 114.667 620 117.5C620 119.848 620.465 121 621.412 121C622.28 121 623.085 122.541 623.5 125C623.884 127.27 624.738 129 625.477 129C626.192 129 627.073 130.575 627.434 132.5C627.797 134.437 628.69 136 629.434 136C630.178 136 631.071 137.563 631.434 139.5C631.827 141.595 632.675 143 633.545 143C634.568 143 635 144.152 635 146.883C635 149.926 634.567 150.88 633 151.29C631.468 151.69 631 152.654 631 155.406C631 157.884 630.548 159 629.545 159C628.675 159 627.827 160.405 627.434 162.5C627.073 164.425 626.192 166 625.477 166C624.738 166 623.884 167.73 623.5 170C623.116 172.27 622.262 174 621.523 174C620.808 174 619.927 175.575 619.566 177.5C619.173 179.595 618.325 181 617.455 181C616.655 181 616 181.9 616 183C616 184.1 615.365 185 614.588 185C613.72 185 612.915 186.541 612.5 189C612.116 191.27 611.262 193 610.523 193C609.808 193 608.927 194.575 608.566 196.5C608.173 198.595 607.325 200 606.455 200C605.452 200 605 201.116 605 203.594C605 206.346 604.532 207.31 603 207.71C601.497 208.103 601 209.074 601 211.617C601 214.333 600.606 215 599 215C597.381 215 597 215.667 597 218.5C597 220.848 596.535 222 595.588 222C594.72 222 593.915 223.541 593.5 226C593.116 228.27 592.262 230 591.523 230C590.808 230 589.927 231.575 589.566 233.5C589.173 235.595 588.325 237 587.455 237C586.57 237 586 237.979 586 239.5C586 241.021 585.43 242 584.545 242C583.675 242 582.827 243.405 582.434 245.5C582.073 247.425 581.203 249 580.5 249C579.797 249 578.927 250.575 578.566 252.5C578.173 254.595 577.325 256 576.455 256C575.424 256 575 257.166 575 260C575 263.333 574.667 264 573 264C571.394 264 571 264.667 571 267.383C571 269.926 570.503 270.897 569 271.29C567.468 271.69 567 272.654 567 275.406C567 277.884 566.548 279 565.545 279C564.675 279 563.827 280.405 563.434 282.5C563.058 284.505 562.184 286 561.389 286C560.625 286 560 286.942 560 288.094C560 289.346 559.197 290.397 558 290.71C556.497 291.103 556 292.074 556 294.617C556 296.911 555.532 298 554.545 298C553.675 298 552.827 299.405 552.434 301.5C552.058 303.505 551.184 305 550.389 305C549.625 305 549 305.9 549 307C549 308.985 549.667 309 636.889 309H724.777L725.434 305.5C725.827 303.405 726.675 302 727.545 302C728.43 302 729 301.021 729 299.5C729 297.979 729.57 297 730.455 297C731.325 297 732.173 295.595 732.566 293.5C732.927 291.575 733.797 290 734.5 290C735.203 290 736.073 288.425 736.434 286.5C736.827 284.405 737.675 283 738.545 283C739.576 283 740 281.834 740 279C740 275.667 740.333 275 742 275C743.606 275 744 274.333 744 271.617C744 269.074 744.497 268.103 746 267.71C747.532 267.31 748 266.346 748 263.594C748 261.116 748.452 260 749.455 260C750.325 260 751.173 258.595 751.566 256.5C751.927 254.575 752.797 253 753.5 253C754.203 253 755.073 251.425 755.434 249.5C755.827 247.405 756.675 246 757.545 246C758.43 246 759 245.021 759 243.5C759 241.979 759.57 241 760.455 241C761.325 241 762.173 239.595 762.566 237.5C762.927 235.575 763.808 234 764.523 234C765.262 234 766.116 232.27 766.5 230C766.915 227.541 767.72 226 768.588 226C769.535 226 770 224.848 770 222.5C770 219.667 770.381 219 772 219C773.606 219 774 218.333 774 215.617C774 213.074 774.497 212.103 776 211.71C777.532 211.31 778 210.346 778 207.594C778 204.667 778.371 204 780 204C781.619 204 782 203.333 782 200.5C782 198.056 782.452 197 783.5 197C784.356 197 785 196.101 785 194.906C785 193.654 785.803 192.603 787 192.29C788.503 191.897 789 190.926 789 188.383C789 186.055 789.464 185 790.488 185C791.451 185 792.202 183.588 792.616 181C792.989 178.664 793.808 177 794.582 177C795.312 177 796.205 175.425 796.566 173.5C796.927 171.575 797.797 170 798.5 170C799.203 170 800.073 168.425 800.434 166.5C800.827 164.405 801.675 163 802.545 163C803.576 163 804 161.834 804 159C804 155.667 804.333 155 806 155C807.606 155 808 154.333 808 151.617C808 149.074 808.497 148.103 810 147.71C811.532 147.31 812 146.346 812 143.594C812 141.066 812.445 140 813.5 140C814.333 140 815 139.111 815 138C815 136.667 815.667 136 817 136C818.606 136 819 135.333 819 132.617C819 130.074 819.497 129.103 821 128.71C822.532 128.31 823 127.346 823 124.594C823 121.667 823.371 121 825 121C826.619 121 827 120.333 827 117.5C827 115.152 827.465 114 828.412 114C829.28 114 830.085 112.459 830.5 110C830.884 107.73 831.738 106 832.477 106C833.192 106 834.073 104.425 834.434 102.5C834.827 100.405 835.675 98.9999 836.545 98.9999C837.532 98.9999 838 97.9109 838 95.6169C838 93.0739 838.497 92.1029 840 91.7099C841.197 91.3969 842 90.3459 842 89.0939C842 87.9419 842.625 86.9999 843.389 86.9999C844.184 86.9999 845.058 85.5049 845.434 83.4999C845.827 81.4049 846.675 79.9999 847.545 79.9999C848.576 79.9999 849 78.8339 849 75.9999C849 72.6669 849.333 71.9999 851 71.9999C852.619 71.9999 853 71.3329 853 68.4999C853 65.6669 853.381 64.9999 855 64.9999C856.667 64.9999 857 64.3329 857 60.9999C857 58.1659 857.424 56.9999 858.455 56.9999C859.325 56.9999 860.173 55.5949 860.566 53.4999C860.927 51.5749 861.797 49.9999 862.5 49.9999C863.203 49.9999 864.073 48.4249 864.434 46.4999C864.827 44.4049 865.675 42.9999 866.545 42.9999C867.43 42.9999 868 42.0209 868 40.4999C868 38.9789 868.57 37.9999 869.455 37.9999C870.325 37.9999 871.173 36.5949 871.566 34.4999C871.927 32.5749 872.808 30.9999 873.523 30.9999C874.262 30.9999 875.116 29.2699 875.5 26.9999C875.915 24.5409 876.72 22.9999 877.588 22.9999C878.535 22.9999 879 21.8479 879 19.4999C879 16.6669 879.381 15.9999 881 15.9999C882.606 15.9999 883 15.3329 883 12.6169C883 10.0739 883.497 9.1029 885 8.7099C886.532 8.3099 887 7.34589 887 4.59389V0.999897H800.5C714.667 0.999897 714 1.0149 714 2.9999C714 4.3329 713.333 4.9999 712 4.9999C710.394 4.9999 710 5.66689 710 8.38289C710 10.9259 709.503 11.8969 708 12.2899C706.468 12.6899 706 13.6539 706 16.4059C706 18.8839 705.548 19.9999 704.545 19.9999C703.675 19.9999 702.827 21.4049 702.434 23.4999C702.058 25.5049 701.184 26.9999 700.389 26.9999C699.625 26.9999 699 27.8999 699 28.9999C699 30.3329 698.333 30.9999 697 30.9999C695.667 30.9999 695 30.3329 695 28.9999C695 27.8999 694.375 26.9999 693.611 26.9999C692.816 26.9999 691.942 25.5049 691.566 23.4999C691.196 21.5269 690.313 19.9999 689.543 19.9999C688.727 19.9999 687.903 18.3859 687.5 15.9999C687.116 13.7299 686.262 11.9999 685.523 11.9999C684.808 11.9999 683.927 10.4249 683.566 8.4999C683.173 6.4049 682.325 4.9999 681.455 4.9999C680.655 4.9999 680 4.0999 680 2.9999C680 1.0219 679.333 0.999897 619.375 0.999897H558.75L559.375 4.1249ZM931.566 4.4999C931.173 6.5949 930.325 7.9999 929.455 7.9999C928.424 7.9999 928 9.1659 928 11.9999C928 15.3329 927.667 15.9999 926 15.9999C924.394 15.9999 924 16.6669 924 19.3829C924 21.9259 923.503 22.8969 922 23.2899C920.803 23.6029 920 24.6539 920 25.9059C920 27.1009 919.356 27.9999 918.5 27.9999C917.452 27.9999 917 29.0559 917 31.4999C917 34.3329 916.619 34.9999 915 34.9999C913.394 34.9999 913 35.6669 913 38.3829C913 40.9259 912.503 41.8969 911 42.2899C909.468 42.6899 909 43.6539 909 46.4059C909 48.8839 908.548 49.9999 907.545 49.9999C906.675 49.9999 905.827 51.4049 905.434 53.4999C905.073 55.4249 904.192 56.9999 903.477 56.9999C902.738 56.9999 901.884 58.7299 901.5 60.9999C901.085 63.4589 900.28 64.9999 899.412 64.9999C898.465 64.9999 898 66.1519 898 68.4999C898 71.3329 897.619 71.9999 896 71.9999C894.394 71.9999 894 72.6669 894 75.3829C894 77.9259 893.503 78.8969 892 79.2899C890.803 79.6029 890 80.6539 890 81.9059C890 83.0579 889.375 83.9999 888.611 83.9999C887.816 83.9999 886.942 85.4949 886.566 87.4999C886.173 89.5949 885.325 90.9999 884.455 90.9999C883.424 90.9999 883 92.1659 883 94.9999C883 98.3329 882.667 98.9999 881 98.9999C879.381 98.9999 879 99.6669 879 102.5C879 105.333 878.619 106 877 106C875.381 106 875 106.667 875 109.5C875 111.848 874.535 113 873.588 113C872.72 113 871.915 114.541 871.5 117C871.116 119.27 870.262 121 869.523 121C868.808 121 867.927 122.575 867.566 124.5C867.173 126.595 866.325 128 865.455 128C864.57 128 864 128.979 864 130.5C864 132.021 863.43 133 862.545 133C861.675 133 860.827 134.405 860.434 136.5C860.073 138.425 859.192 140 858.477 140C857.738 140 856.884 141.73 856.5 144C856.085 146.459 855.28 148 854.412 148C853.465 148 853 149.152 853 151.5C853 154.333 852.619 155 851 155C849.394 155 849 155.667 849 158.383C849 160.926 848.503 161.897 847 162.29C845.468 162.69 845 163.654 845 166.406C845 168.884 844.548 170 843.545 170C842.675 170 841.827 171.405 841.434 173.5C841.058 175.505 840.184 177 839.389 177C838.625 177 838 177.914 838 179.031C838 180.149 837.337 181.317 836.527 181.628C835.717 181.939 834.767 183.725 834.416 185.597C834.065 187.468 833.173 189 832.434 189C831.69 189 830.797 190.563 830.434 192.5C830.073 194.425 829.192 196 828.477 196C827.738 196 826.884 197.73 826.5 200C826.085 202.459 825.28 204 824.412 204C823.465 204 823 205.152 823 207.5C823 210.333 822.619 211 821 211C819.333 211 819 211.667 819 215C819 218.333 818.667 219 817 219C815.394 219 815 219.667 815 222.383C815 224.926 814.503 225.897 813 226.29C811.803 226.603 811 227.654 811 228.906C811 230.101 810.356 231 809.5 231C808.49 231 808 232.01 808 234.094C808 236.346 807.456 237.329 806 237.71C804.497 238.103 804 239.074 804 241.617C804 244.333 803.606 245 802 245C800.333 245 800 245.667 800 249C800 251.834 799.576 253 798.545 253C797.675 253 796.827 254.405 796.434 256.5C796.073 258.425 795.192 260 794.477 260C793.738 260 792.884 261.73 792.5 264C792.085 266.459 791.28 268 790.412 268C789.465 268 789 269.152 789 271.5C789 274.333 788.619 275 787 275C785.394 275 785 275.667 785 278.383C785 280.926 784.503 281.897 783 282.29C781.803 282.603 781 283.654 781 284.906C781 286.101 780.356 287 779.5 287C778.452 287 778 288.056 778 290.5C778 293.333 777.619 294 776 294C774.333 294 774 294.667 774 298C774 301.333 773.667 302 772 302C770.381 302 770 302.667 770 305.5V309H830.5C890.333 309 891 308.978 891 307C891 305.9 891.625 305 892.389 305C893.184 305 894.058 303.505 894.434 301.5C894.827 299.405 895.675 298 896.545 298C897.576 298 898 296.834 898 294C898 290.667 898.333 290 900 290C901.619 290 902 289.333 902 286.5C902 283.964 902.439 283 903.594 283C904.47 283 905.423 282.1 905.71 281C906.39 278.401 909 278.401 909 281C909 282.333 909.667 283 911 283C912.606 283 913 283.667 913 286.383C913 288.926 913.497 289.897 915 290.29C916.532 290.69 917 291.654 917 294.406C917 296.806 917.461 298 918.389 298C919.184 298 920.058 299.495 920.434 301.5C920.827 303.595 921.675 305 922.545 305C923.345 305 924 305.9 924 307C924 308.985 924.667 309 1011.12 309H1098.23L1097.63 306.75C1097.3 305.512 1097.02 303.712 1097.01 302.75C1097.01 301.788 1096.38 301 1095.61 301C1094.82 301 1093.94 299.505 1093.57 297.5C1093.17 295.405 1092.32 294 1091.45 294C1090.45 294 1090 292.884 1090 290.406C1090 287.654 1089.53 286.69 1088 286.29C1086.5 285.897 1086 284.926 1086 282.383C1086 279.667 1085.61 279 1084 279C1082.39 279 1082 278.333 1082 275.617C1082 273.074 1081.5 272.103 1080 271.71C1078.47 271.31 1078 270.346 1078 267.594C1078 265.194 1077.54 264 1076.61 264C1075.82 264 1074.94 262.505 1074.57 260.5C1074.17 258.405 1073.32 257 1072.45 257C1071.57 257 1071 256.021 1071 254.5C1071 252.667 1070.47 252 1069 252C1067.38 252 1067 251.333 1067 248.5C1067 246.068 1066.55 245 1065.51 245C1064.55 245 1063.8 243.588 1063.38 241C1063.01 238.664 1062.19 237 1061.42 237C1060.69 237 1059.79 235.425 1059.43 233.5C1059.06 231.495 1058.18 230 1057.39 230C1056.47 230 1056 228.82 1056 226.5C1056 223.667 1055.62 223 1054 223C1052.33 223 1052 222.333 1052 219C1052 215.667 1051.67 215 1050 215C1048.38 215 1048 214.333 1048 211.5C1048 209.056 1047.55 208 1046.5 208C1045.64 208 1045 207.101 1045 205.906C1045 204.654 1044.2 203.603 1043 203.29C1041.5 202.897 1041 201.926 1041 199.383C1041 196.667 1040.61 196 1039 196C1037.38 196 1037 195.333 1037 192.5C1037 190.152 1036.54 189 1035.59 189C1034.72 189 1033.92 187.459 1033.5 185C1033.12 182.73 1032.26 181 1031.52 181C1030.81 181 1029.93 179.425 1029.57 177.5C1029.17 175.405 1028.32 174 1027.45 174C1026.45 174 1026 172.884 1026 170.406C1026 167.654 1025.53 166.69 1024 166.29C1022.5 165.897 1022 164.926 1022 162.383C1022 159.667 1021.61 159 1020 159C1018.67 159 1018 158.333 1018 157C1018 155.9 1017.36 155 1016.59 155C1015.72 155 1014.91 153.459 1014.5 151C1014.09 148.541 1013.28 147 1012.41 147C1011.46 147 1011 145.848 1011 143.5C1011 140.667 1010.62 140 1009 140C1007.33 140 1007 139.333 1007 136C1007 132.667 1006.67 132 1005 132C1003.38 132 1003 131.333 1003 128.5C1003 126.18 1002.53 125 1001.61 125C1000.82 125 999.942 123.505 999.566 121.5C999.205 119.575 998.312 118 997.582 118C996.808 118 995.989 116.336 995.616 114C995.229 111.58 994.433 110 993.599 110C992.818 110 991.939 108.487 991.566 106.5C991.173 104.405 990.325 103 989.455 103C988.57 103 988 102.021 988 100.5C988 98.9789 987.43 97.9999 986.545 97.9999C985.675 97.9999 984.827 96.5949 984.434 94.4999C984.058 92.4949 983.184 90.9999 982.389 90.9999C981.461 90.9999 981 89.8059 981 87.4059C981 84.6539 980.532 83.6899 979 83.2899C977.497 82.8969 977 81.9259 977 79.3829C977 76.6669 976.606 75.9999 975 75.9999C973.381 75.9999 973 75.3329 973 72.4999C973 70.1519 972.535 68.9999 971.588 68.9999C970.72 68.9999 969.915 67.4589 969.5 64.9999C969.116 62.7299 968.262 60.9999 967.523 60.9999C966.808 60.9999 965.927 59.4249 965.566 57.4999C965.173 55.4049 964.325 53.9999 963.455 53.9999C962.57 53.9999 962 53.0209 962 51.4999C962 49.9789 961.43 48.9999 960.545 48.9999C959.675 48.9999 958.827 47.5949 958.434 45.4999C958.073 43.5749 957.203 41.9999 956.5 41.9999C955.797 41.9999 954.927 40.4249 954.566 38.4999C954.196 36.5269 953.313 34.9999 952.543 34.9999C951.727 34.9999 950.903 33.3859 950.5 30.9999C950.085 28.5409 949.28 26.9999 948.412 26.9999C947.465 26.9999 947 25.8479 947 23.4999C947 20.6669 946.619 19.9999 945 19.9999C943.333 19.9999 943 19.3329 943 15.9999C943 12.6669 942.667 11.9999 941 11.9999C939.394 11.9999 939 11.3329 939 8.6169C939 6.0739 938.503 5.1029 937 4.7099C935.9 4.4229 935 3.4699 935 2.5939C935 -0.525101 932.219 1.0179 931.566 4.4999ZM1116 155V309H1182H1248V301.5C1248 295.542 1248.3 294 1249.48 294C1250.74 294 1251 290.556 1251.23 271.25C1251.46 251.814 1251.72 248.5 1253 248.5C1253.82 248.5 1254.64 249.512 1254.82 250.75C1254.99 251.988 1255.73 253 1256.46 253C1257.18 253 1258.07 254.575 1258.43 256.5C1258.8 258.473 1259.69 260 1260.46 260C1261.27 260 1262.1 261.614 1262.5 264C1262.92 266.459 1263.72 268 1264.59 268C1265.36 268 1266 268.9 1266 270C1266 271.1 1266.65 272 1267.45 272C1268.32 272 1269.17 273.405 1269.57 275.5C1269.93 277.425 1270.8 279 1271.5 279C1272.2 279 1273.07 280.575 1273.43 282.5C1273.79 284.425 1274.69 286 1275.42 286C1276.19 286 1277.01 287.664 1277.38 290C1277.8 292.588 1278.55 294 1279.51 294C1280.33 294 1281 294.896 1281 296C1281 297.333 1281.67 298 1283 298C1284.62 298 1285 298.667 1285 301.5C1285 304.036 1285.44 305 1286.59 305C1287.47 305 1288.42 305.9 1288.71 307C1289.23 308.973 1290.07 309 1352.62 309C1415.33 309 1416 308.979 1416 307C1416 305.889 1415.33 305 1414.5 305C1413.45 305 1413 303.944 1413 301.5C1413 298.667 1412.62 298 1411 298C1409.67 298 1409 297.333 1409 296C1409 294.896 1408.33 294 1407.51 294C1406.55 294 1405.8 292.588 1405.38 290C1405.01 287.664 1404.19 286 1403.42 286C1402.69 286 1401.79 284.425 1401.43 282.5C1401.06 280.495 1400.18 279 1399.39 279C1398.47 279 1398 277.82 1398 275.5C1398 272.667 1397.62 272 1396 272C1394.33 272 1394 271.333 1394 268C1394 264.667 1393.67 264 1392 264C1390.67 264 1390 263.333 1390 262C1390 260.9 1389.36 260 1388.59 260C1387.72 260 1386.92 258.459 1386.5 256C1386.08 253.541 1385.28 252 1384.41 252C1383.46 252 1383 250.848 1383 248.5C1383 245.667 1382.62 245 1381 245C1379.38 245 1379 244.333 1379 241.5C1379 238.667 1378.62 238 1377 238C1375.33 238 1375 237.333 1375 234C1375 230.667 1374.67 230 1373 230C1371.67 230 1371 229.333 1371 228C1371 226.889 1370.33 226 1369.5 226C1368.45 226 1368 224.944 1368 222.5C1368 219.667 1367.62 219 1366 219C1364.33 219 1364 218.333 1364 215C1364 211.667 1363.67 211 1362 211C1360.38 211 1360 210.333 1360 207.5C1360 205.104 1359.54 204 1358.55 204C1357.68 204 1356.83 202.595 1356.43 200.5C1356.06 198.495 1355.18 197 1354.39 197C1353.62 197 1353 196.058 1353 194.906C1353 193.654 1352.2 192.603 1351 192.29C1349.5 191.897 1349 190.926 1349 188.383C1349 185.667 1348.61 185 1347 185C1345.39 185 1345 184.333 1345 181.617C1345 179.074 1344.5 178.103 1343 177.71C1341.47 177.31 1341 176.346 1341 173.594C1341 171.194 1340.54 170 1339.61 170C1338.82 170 1337.94 168.505 1337.57 166.5C1337.17 164.405 1336.32 163 1335.45 163C1334.64 163 1334 162.072 1334 160.906C1334 159.654 1333.2 158.603 1332 158.29C1330.5 157.897 1330 156.926 1330 154.383C1330 152.16 1329.52 151 1328.61 151C1327.84 151 1326.95 149.919 1326.61 148.598C1325.77 145.216 1326.98 140 1328.62 140C1329.53 140 1330 138.803 1330 136.5C1330 133.667 1330.38 133 1332 133C1333.67 133 1334 132.333 1334 129C1334 125.667 1334.33 125 1336 125C1337.33 125 1338 124.333 1338 123C1338 121.889 1338.67 121 1339.5 121C1340.56 121 1341 119.934 1341 117.406C1341 114.654 1341.47 113.69 1343 113.29C1344.5 112.897 1345 111.926 1345 109.383C1345 106.667 1345.39 106 1347 106C1348.61 106 1349 105.333 1349 102.617C1349 100.074 1349.5 99.1029 1351 98.7099C1352.53 98.3099 1353 97.3459 1353 94.5939C1353 92.1939 1353.46 90.9999 1354.39 90.9999C1355.18 90.9999 1356.06 89.5049 1356.43 87.4999C1356.83 85.4049 1357.68 83.9999 1358.55 83.9999C1359.55 83.9999 1360 82.8839 1360 80.4059C1360 77.6539 1360.47 76.6899 1362 76.2899C1363.5 75.8969 1364 74.9259 1364 72.3829C1364 69.6669 1364.39 68.9999 1366 68.9999C1367.67 68.9999 1368 68.3329 1368 64.9999C1368 62.1659 1368.42 60.9999 1369.45 60.9999C1370.32 60.9999 1371.17 59.5949 1371.57 57.4999C1371.94 55.4949 1372.82 53.9999 1373.61 53.9999C1374.38 53.9999 1375 53.0859 1375 51.9689C1375 50.8509 1375.66 49.6829 1376.47 49.3719C1377.28 49.0609 1378.23 47.2749 1378.58 45.4029C1378.93 43.5319 1379.83 41.9999 1380.57 41.9999C1381.31 41.9999 1382.2 40.4369 1382.57 38.4999C1382.93 36.5749 1383.81 34.9999 1384.52 34.9999C1385.26 34.9999 1386.12 33.2699 1386.5 30.9999C1386.92 28.5409 1387.72 26.9999 1388.59 26.9999C1389.54 26.9999 1390 25.8479 1390 23.4999C1390 20.6669 1390.38 19.9999 1392 19.9999C1393.67 19.9999 1394 19.3329 1394 15.9999C1394 12.6669 1394.33 11.9999 1396 11.9999C1397.62 11.9999 1398 11.3329 1398 8.4999C1398 6.0559 1398.45 4.9999 1399.5 4.9999C1400.33 4.9999 1401 4.1109 1401 2.9999C1401 1.0219 1400.33 0.999897 1341 0.999897C1281.67 0.999897 1281 1.0219 1281 2.9999C1281 4.3329 1280.33 4.9999 1279 4.9999C1277.38 4.9999 1277 5.6669 1277 8.4999C1277 10.8479 1276.54 11.9999 1275.59 11.9999C1274.72 11.9999 1273.92 13.5409 1273.5 15.9999C1273.08 18.4589 1272.28 19.9999 1271.41 19.9999C1270.46 19.9999 1270 21.1519 1270 23.4999C1270 26.3329 1269.62 26.9999 1268 26.9999C1266.38 26.9999 1266 27.6669 1266 30.4999C1266 32.8959 1265.54 33.9999 1264.55 33.9999C1263.68 33.9999 1262.83 32.5949 1262.43 30.4999C1262.06 28.4949 1261.18 26.9999 1260.39 26.9999C1259.47 26.9999 1259 25.8199 1259 23.4999C1259 20.6669 1258.62 19.9999 1257 19.9999C1255.33 19.9999 1255 19.3329 1255 15.9999C1255 12.6669 1254.67 11.9999 1253 11.9999C1251.38 11.9999 1251 11.3329 1251 8.4999C1251 6.0559 1250.55 4.9999 1249.5 4.9999C1248.67 4.9999 1248 4.1109 1248 2.9999C1248 1.0199 1247.33 0.999897 1182 0.999897H1116V155ZM1409 65.0729C1409 125.556 1409.1 129.128 1410.75 128.813C1411.71 128.63 1412.64 127.472 1412.82 126.24C1412.99 125.008 1413.75 124 1414.49 124C1415.23 124 1416.14 122.65 1416.5 121C1416.86 119.35 1417.8 118 1418.58 118C1419.36 118 1420 117.1 1420 116C1420 114.667 1420.67 114 1422 114C1423.47 114 1424 113.333 1424 111.5C1424 109.926 1424.57 109 1425.53 109C1426.41 109 1427.29 107.777 1427.63 106.089C1427.97 104.393 1429.01 102.971 1430.11 102.682C1431.15 102.41 1432 101.47 1432 100.594C1432 99.7169 1432.62 98.9999 1433.39 98.9999C1434.18 98.9999 1435.06 97.5049 1435.43 95.4999C1435.83 93.4049 1436.68 91.9999 1437.55 91.9999C1438.35 91.9999 1439 91.0999 1439 89.9999C1439 88.8369 1439.67 87.9999 1440.59 87.9999C1441.47 87.9999 1442.42 87.0999 1442.71 85.9999C1443 84.8999 1443.81 83.9999 1444.51 83.9999C1445.2 83.9999 1446.07 82.4249 1446.43 80.4999C1446.83 78.4049 1447.68 76.9999 1448.55 76.9999C1449.35 76.9999 1450 76.0999 1450 74.9999C1450 73.6669 1450.67 72.9999 1452 72.9999C1453.29 72.9999 1454 72.3329 1454 71.1169C1454 70.0739 1454.89 68.9999 1456 68.7099C1457.44 68.3349 1458 67.3459 1458 65.2099C1458 63.0739 1458.56 62.0859 1460 61.7099C1461.2 61.3969 1462 60.3459 1462 59.0939C1462 57.9419 1462.62 56.9999 1463.38 56.9999C1464.14 56.9999 1465 56.0999 1465.29 54.9999C1465.58 53.8999 1466.53 52.9999 1467.41 52.9999C1468.56 52.9999 1469 52.0359 1469 49.4999C1469 46.6669 1469.38 45.9999 1471 45.9999C1472.33 45.9999 1473 45.3329 1473 43.9999C1473 42.6669 1473.67 41.9999 1475 41.9999C1476.33 41.9999 1477 41.3329 1477 39.9999C1477 38.8999 1477.65 37.9999 1478.45 37.9999C1479.32 37.9999 1480.17 36.5949 1480.57 34.4999C1480.94 32.4949 1481.82 30.9999 1482.61 30.9999C1483.38 30.9999 1484 30.2829 1484 29.4059C1484 28.5299 1484.9 27.5769 1486 27.2899C1487.11 26.9999 1488 25.9259 1488 24.8829C1488 23.8479 1488.65 22.9999 1489.45 22.9999C1490.32 22.9999 1491.17 21.5949 1491.57 19.4999C1492.04 16.9669 1492.74 15.9999 1494.11 15.9999C1495.33 15.9999 1496 15.2939 1496 13.9999C1496 12.8889 1496.67 11.9999 1497.5 11.9999C1498.33 11.9999 1499 11.1109 1499 9.9999C1499 8.6669 1499.67 7.9999 1501 7.9999C1502.99 7.9999 1503 8.6669 1503 158.5V309H1555.5H1608V157C1608 24.6599 1608.19 4.9999 1609.45 4.9999C1610.32 4.9999 1611.17 6.4049 1611.57 8.4999C1611.97 10.6309 1612.8 11.9999 1613.7 11.9999C1614.52 11.9999 1615.42 12.8999 1615.71 13.9999C1616 15.0999 1616.81 15.9999 1617.51 15.9999C1618.2 15.9999 1619.07 17.5749 1619.43 19.4999C1619.83 21.5949 1620.68 22.9999 1621.55 22.9999C1622.35 22.9999 1623 23.8999 1623 24.9999C1623 26.3329 1623.67 26.9999 1625 26.9999C1626.33 26.9999 1627 27.6669 1627 28.9999C1627 30.0999 1627.62 30.9999 1628.39 30.9999C1629.18 30.9999 1630.06 32.4949 1630.43 34.4999C1630.83 36.5949 1631.68 37.9999 1632.55 37.9999C1633.35 37.9999 1634 38.8999 1634 39.9999C1634 41.3329 1634.67 41.9999 1636 41.9999C1637.33 41.9999 1638 42.6669 1638 43.9999C1638 45.3329 1638.67 45.9999 1640 45.9999C1641.62 45.9999 1642 46.6669 1642 49.4999C1642 52.0359 1642.44 52.9999 1643.59 52.9999C1644.47 52.9999 1645.42 53.8999 1645.71 54.9999C1646 56.0999 1646.86 56.9999 1647.62 56.9999C1648.38 56.9999 1649 57.8999 1649 58.9999C1649 60.3329 1649.67 60.9999 1651 60.9999C1652.62 60.9999 1653 61.6669 1653 64.4999C1653 67.3329 1653.38 67.9999 1655 67.9999C1656.33 67.9999 1657 68.6669 1657 69.9999C1657 71.1109 1657.67 71.9999 1658.5 71.9999C1659.33 71.9999 1660 72.8889 1660 73.9999C1660 75.2939 1660.67 75.9999 1661.89 75.9999C1663.26 75.9999 1663.96 76.9669 1664.43 79.4999C1664.83 81.5949 1665.68 82.9999 1666.55 82.9999C1667.35 82.9999 1668 83.8479 1668 84.8829C1668 85.9259 1668.89 86.9999 1670 87.2899C1671.1 87.5769 1672 88.5299 1672 89.4059C1672 90.2829 1672.62 90.9999 1673.39 90.9999C1674.18 90.9999 1675.06 92.4949 1675.43 94.4999C1675.83 96.5949 1676.68 97.9999 1677.55 97.9999C1678.35 97.9999 1679 98.8999 1679 99.9999C1679 101.333 1679.67 102 1681 102C1682.33 102 1683 102.667 1683 104C1683 105.333 1683.67 106 1685 106C1686.61 106 1687 106.667 1687 109.383C1687 111.926 1687.5 112.897 1689 113.29C1690.1 113.577 1691 114.53 1691 115.406C1691 116.283 1691.68 117 1692.5 117C1693.33 117 1694 117.889 1694 119C1694 120.313 1694.67 121 1695.94 121C1697.46 121 1697.95 121.812 1698.19 124.742C1698.41 127.357 1699.03 128.583 1700.25 128.815C1701.9 129.128 1702 125.555 1702 65.0729V0.999897H1555.5H1409V65.0729ZM161.725 4.60889C161.326 5.00689 161 6.15791 161 7.1669C161 8.1749 160.325 8.9999 159.5 8.9999C158.452 8.9999 158 10.0559 158 12.4999C158 15.3329 157.619 15.9999 156 15.9999C154.333 15.9999 154 16.6669 154 19.9999C154 23.3329 153.667 23.9999 152 23.9999C150.381 23.9999 150 24.6669 150 27.4999C150 29.8959 149.541 30.9999 148.545 30.9999C147.675 30.9999 146.827 32.4049 146.434 34.4999C146.073 36.4249 145.192 37.9999 144.477 37.9999C143.738 37.9999 142.884 39.7299 142.5 41.9999C142.085 44.4589 141.28 45.9999 140.412 45.9999C139.465 45.9999 139 47.1519 139 49.4999C139 52.3329 138.619 52.9999 137 52.9999C135.533 52.9999 135 53.6669 135 55.4999C135 57.0209 134.43 57.9999 133.545 57.9999C132.675 57.9999 131.827 59.4049 131.434 61.4999C131.058 63.5049 130.184 64.9999 129.389 64.9999C128.468 64.9999 128 66.1799 128 68.4999C128 71.3329 127.619 71.9999 126 71.9999C124.333 71.9999 124 72.6669 124 75.9999C124 79.3329 123.667 79.9999 122 79.9999C120.394 79.9999 120 80.6669 120 83.3829C120 85.9259 119.503 86.8969 118 87.2899C116.468 87.6899 116 88.6539 116 91.4059C116 93.8059 115.539 94.9999 114.611 94.9999C113.816 94.9999 112.942 96.4949 112.566 98.4999C112.173 100.595 111.325 102 110.455 102C109.57 102 109 102.979 109 104.5C109 106.021 108.43 107 107.545 107C106.675 107 105.827 108.405 105.434 110.5C105.071 112.437 104.178 114 103.434 114C102.69 114 101.797 115.563 101.434 117.5C101.073 119.425 100.192 121 99.477 121C98.738 121 97.884 122.73 97.5 125C97.085 127.459 96.28 129 95.412 129C94.465 129 94 130.152 94 132.5C94 135.333 93.619 136 92 136C90.333 136 90 136.667 90 140C90 143.333 89.667 144 88 144C86.381 144 86 144.667 86 147.5C86 149.82 85.532 151 84.611 151C83.816 151 82.942 152.495 82.566 154.5C82.173 156.595 81.325 158 80.455 158C79.57 158 79 158.979 79 160.5C79 162.333 78.467 163 77 163C75.381 163 75 163.667 75 166.5C75 168.896 74.541 170 73.545 170C72.675 170 71.827 171.405 71.434 173.5C71.073 175.425 70.192 177 69.477 177C68.738 177 67.884 178.73 67.5 181C67.085 183.459 66.28 185 65.412 185C64.465 185 64 186.152 64 188.5C64 191.333 63.619 192 62 192C60.333 192 60 192.667 60 196C60 199.333 59.667 200 58 200C56.394 200 56 200.667 56 203.383C56 205.926 55.503 206.897 54 207.29C52.803 207.603 52 208.654 52 209.906C52 211.101 51.356 212 50.5 212C49.452 212 49 213.056 49 215.5C49 218.333 48.619 219 47 219C45.394 219 45 219.667 45 222.383C45 224.926 44.503 225.897 43 226.29C41.468 226.69 41 227.654 41 230.406C41 232.884 40.548 234 39.545 234C38.675 234 37.827 235.405 37.434 237.5C37.073 239.425 36.192 241 35.477 241C34.738 241 33.884 242.73 33.5 245C33.085 247.459 32.28 249 31.412 249C30.465 249 30 250.152 30 252.5C30 255.333 29.619 256 28 256C26.533 256 26 256.667 26 258.5C26 260.021 25.43 261 24.545 261C23.675 261 22.827 262.405 22.434 264.5C22.058 266.505 21.184 268 20.389 268C19.468 268 19 269.18 19 271.5C19 274.333 18.619 275 17 275C15.333 275 15 275.667 15 279C15 282.333 14.667 283 13 283C11.394 283 11 283.667 11 286.383C11 288.926 10.503 289.897 9 290.29C7.544 290.671 7 291.654 7 293.906C7 295.904 6.5 297 5.588 297C4.72 297 3.915 298.541 3.5 301C3.085 303.459 2.28 305 1.412 305C0.635 305 0 305.9 0 307C0 308.978 0.667 309 60.5 309C113.611 309 121 308.817 121 307.5C121 306.675 121.675 306 122.5 306C123.583 306 124 304.889 124 302C124 298.667 124.333 298 126 298C127.333 298 128 297.333 128 296C128 294.9 128.635 294 129.412 294C130.28 294 131.085 292.459 131.5 290C131.915 287.541 132.72 286 133.588 286C134.535 286 135 284.848 135 282.5C135 279.667 135.381 279 137 279C138.1 279 139 279.623 139 280.383C139 281.144 139.9 282.002 141 282.29C142.532 282.69 143 283.654 143 286.406C143 288.934 143.445 290 144.5 290C145.333 290 146 290.889 146 292C146 293.333 146.667 294 148 294C149.667 294 150 294.667 150 298C150 301.333 150.333 302 152 302C153.619 302 154 302.667 154 305.5V309H242C329.333 309 330 308.985 330 307C330 305.889 329.333 305 328.5 305C327.452 305 327 303.944 327 301.5C327 298.667 326.619 298 325 298C323.381 298 323 297.333 323 294.5C323 292.152 322.535 291 321.588 291C320.72 291 319.915 289.459 319.5 287C319.085 284.541 318.28 283 317.412 283C316.635 283 316 282.1 316 281C316 279.667 315.333 279 314 279C312.333 279 312 278.333 312 275C312 271.667 311.667 271 310 271C308.381 271 308 270.333 308 267.5C308 265.152 307.535 264 306.588 264C305.72 264 304.915 262.459 304.5 260C304.116 257.73 303.262 256 302.523 256C301.808 256 300.927 254.425 300.566 252.5C300.173 250.405 299.325 249 298.455 249C297.459 249 297 247.896 297 245.5C297 242.667 296.619 242 295 242C293.333 242 293 241.333 293 238C293 234.667 292.667 234 291 234C289.667 234 289 233.333 289 232C289 230.889 288.333 230 287.5 230C286.445 230 286 228.934 286 226.406C286 223.654 285.532 222.69 284 222.29C282.497 221.897 282 220.926 282 218.383C282 215.667 281.606 215 280 215C278.381 215 278 214.333 278 211.5C278 209.152 277.535 208 276.588 208C275.72 208 274.915 206.459 274.5 204C274.116 201.73 273.262 200 272.523 200C271.808 200 270.927 198.425 270.566 196.5C270.205 194.575 269.312 193 268.582 193C267.808 193 266.989 191.336 266.616 189C266.202 186.412 265.451 185 264.488 185C263.464 185 263 183.945 263 181.617C263 179.074 262.503 178.103 261 177.71C259.803 177.397 259 176.346 259 175.094C259 173.899 258.356 173 257.5 173C256.49 173 256 171.99 256 169.906C256 167.654 255.456 166.671 254 166.29C252.497 165.897 252 164.926 252 162.383C252 159.667 251.606 159 250 159C248.333 159 248 158.333 248 155C248 151.667 247.667 151 246 151C244.381 151 244 150.333 244 147.5C244 145.152 243.535 144 242.588 144C241.72 144 240.915 142.459 240.5 140C240.116 137.73 239.262 136 238.523 136C237.808 136 236.927 134.425 236.566 132.5C236.173 130.405 235.325 129 234.455 129C233.57 129 233 128.021 233 126.5C233 124.979 232.43 124 231.545 124C230.675 124 229.827 122.595 229.434 120.5C229.073 118.575 228.203 117 227.5 117C226.797 117 225.927 115.425 225.566 113.5C225.173 111.405 224.325 110 223.455 110C222.452 110 222 108.884 222 106.406C222 103.654 221.532 102.69 220 102.29C218.497 101.897 218 100.926 218 98.3829C218 95.6669 217.606 94.9999 216 94.9999C214.381 94.9999 214 94.3329 214 91.4999C214 89.1519 213.535 87.9999 212.588 87.9999C211.72 87.9999 210.915 86.4589 210.5 83.9999C210.085 81.5409 209.28 79.9999 208.412 79.9999C207.635 79.9999 207 79.0999 207 77.9999C207 76.6669 206.333 75.9999 205 75.9999C203.333 75.9999 203 75.3329 203 71.9999C203 69.1659 202.576 67.9999 201.545 67.9999C200.675 67.9999 199.827 66.5949 199.434 64.4999C199.073 62.5749 198.192 60.9999 197.477 60.9999C196.738 60.9999 195.884 59.2699 195.5 56.9999C195.085 54.5409 194.28 52.9999 193.412 52.9999C192.465 52.9999 192 51.8479 192 49.4999C192 46.6669 191.619 45.9999 190 45.9999C188.394 45.9999 188 45.3329 188 42.6169C188 40.0739 187.503 39.1029 186 38.7099C184.468 38.3099 184 37.3459 184 34.5939C184 32.1159 183.548 30.9999 182.545 30.9999C181.675 30.9999 180.827 29.5949 180.434 27.4999C180.058 25.4949 179.184 23.9999 178.389 23.9999C177.625 23.9999 177 23.0579 177 21.9059C177 20.6539 176.197 19.6029 175 19.2899C173.497 18.8969 173 17.9259 173 15.3829C173 12.6669 172.606 11.9999 171 11.9999C169.381 11.9999 169 11.3329 169 8.4999C169 6.3739 168.509 4.99489 167.75 4.98589C167.063 4.97889 165.589 4.72789 164.475 4.42789C163.361 4.12889 162.123 4.20989 161.725 4.60889Z" fill="#EF8713"/>
</svg>
