<svg width="20" height="20" viewBox="0 0 20 20" fill="none" xmlns="http://www.w3.org/2000/svg">
<path opacity="0.35" d="M10 4.99984C10.8334 4.99984 11.6175 5.20567 12.3075 5.56734C12.9659 5.91234 13.7659 5.81817 14.2917 5.29234C15.0792 4.50484 14.8917 3.1715 13.9092 2.64567C12.7442 2.0215 11.4142 1.6665 10 1.6665C6.80253 1.6665 4.02836 3.46984 2.63086 6.114L5.38169 8.08317C6.13419 6.27317 7.91753 4.99984 10 4.99984Z" fill="black"/>
<path d="M4.99984 10.0001C4.99984 9.32092 5.1365 8.67426 5.3815 8.08342L2.63067 6.11426C2.01734 7.27509 1.6665 8.59592 1.6665 10.0001C1.6665 11.3684 2.00234 12.6559 2.5865 13.7951L5.29317 11.6768C5.1065 11.1518 4.99984 10.5893 4.99984 10.0001Z" fill="black"/>
<path opacity="0.35" d="M9.9999 14.9999C7.8274 14.9999 5.98407 13.6116 5.29407 11.6758L2.5874 13.7941C3.96824 16.4866 6.76574 18.3333 9.9999 18.3333C12.1491 18.3333 14.1016 17.5133 15.5791 16.1774L12.9866 13.9991C12.1532 14.6241 11.1224 14.9999 9.9999 14.9999Z" fill="black"/>
<path d="M18.3333 10.0002C18.3333 9.441 18.2758 8.896 18.1708 8.3685L18.1625 8.3335H17.5H11.6667C10.7458 8.3335 10 9.07933 10 10.0002C10 10.921 10.7458 11.6668 11.6667 11.6668H14.7092C14.3767 12.606 13.7683 13.4127 12.9867 13.9993L15.5792 16.1777C17.2667 14.6527 18.3333 12.4535 18.3333 10.0002Z" fill="black"/>
</svg>
