<svg width="2221" height="505" viewBox="0 0 2221 505" fill="none" xmlns="http://www.w3.org/2000/svg">
<path d="M254.5 194C366.096 160.44 477.912 127.421 585.031 89.1229C621.612 76.0443 657.39 61.3639 694.5 49" stroke="#D1550C" stroke-width="40" stroke-linecap="square"/>
<g filter="url(#filter0_f_421_1521)">
<path d="M254.5 194C366.096 160.44 477.912 127.421 585.031 89.1229C621.612 76.0443 657.39 61.3639 694.5 49" stroke="#D1550C" stroke-width="40" stroke-linecap="square"/>
</g>
<path d="M622.5 176C887.608 254.036 1116.47 367.783 1354.5 470" stroke="#D1550C" stroke-width="40" stroke-linecap="square"/>
<g filter="url(#filter1_f_421_1521)">
<path d="M622.5 176C887.608 254.036 1116.47 367.783 1354.5 470" stroke="#D1550C" stroke-width="40" stroke-linecap="square"/>
</g>
<path d="M1028.5 144C1043.63 143.157 1056.27 140.5 1071.05 137.875C1145.15 124.724 1219.66 112.304 1294.45 100.515C1452.45 75.6084 1612.62 55.6718 1770.5 31" stroke="#D1550C" stroke-width="40" stroke-linecap="square"/>
<g filter="url(#filter2_f_421_1521)">
<path d="M1028.5 144C1043.63 143.157 1056.27 140.5 1071.05 137.875C1145.15 124.724 1219.66 112.304 1294.45 100.515C1452.45 75.6084 1612.62 55.6718 1770.5 31" stroke="#D1550C" stroke-width="40" stroke-linecap="square"/>
</g>
<path d="M1545.5 235C1708.16 312.609 1870.33 389.117 2057.5 446" stroke="#D1550C" stroke-width="40" stroke-linecap="square"/>
<g filter="url(#filter3_f_421_1521)">
<path d="M1545.5 235C1708.16 312.609 1870.33 389.117 2057.5 446" stroke="#D1550C" stroke-width="40" stroke-linecap="square"/>
</g>
<g filter="url(#filter4_d_421_1521)">
<path d="M33 190.395C59 190.395 72 190.395 104.35 190.395C147.735 202.46 208.156 202.138 254.749 200.678C367.9 197.132 477.66 172.909 590.888 169.062C731.444 164.286 868.76 155.989 1008.34 145.12C1180.62 131.703 1330.31 185.097 1487.43 217.56C1567.26 234.053 1654.89 250.905 1740.14 253.78C1789.21 255.436 1839.56 247.479 1885.75 238.586C1932.48 229.589 1977.62 222.046 2022.6 210.5C2055.67 202.011 2097.78 195.494 2122.51 180.112C2139.57 169.498 2158.73 151.388 2181.5 144.813" stroke="#F8861E" stroke-width="50" stroke-linecap="square"/>
</g>
<g filter="url(#filter5_f_421_1521)">
<path d="M33 190.395C59 190.395 72 190.395 104.35 190.395C147.735 202.46 208.156 202.138 254.749 200.678C367.9 197.132 477.66 172.909 590.888 169.062C731.444 164.286 868.76 155.989 1008.34 145.12C1180.62 131.703 1330.31 185.097 1487.43 217.56C1567.26 234.053 1654.89 250.905 1740.14 253.78C1789.21 255.436 1839.56 247.479 1885.75 238.586C1932.48 229.589 1977.62 222.046 2022.6 210.5C2055.67 202.011 2097.78 195.494 2122.51 180.112C2139.57 169.498 2158.73 151.388 2181.5 144.813" stroke="#F8861E" stroke-width="50" stroke-linecap="square"/>
</g>
<path d="M33 190.395C59 190.395 72 190.395 104.35 190.395C147.735 202.46 208.156 202.138 254.749 200.678C367.9 197.132 477.66 172.909 590.888 169.062C731.444 164.286 868.76 155.989 1008.34 145.12C1180.62 131.703 1330.31 185.097 1487.43 217.56C1567.26 234.053 1654.89 250.905 1740.14 253.78C1789.21 255.436 1839.56 247.479 1885.75 238.586C1932.48 229.589 1977.62 222.046 2022.6 210.5C2055.67 202.011 2097.78 195.494 2122.51 180.112C2139.57 169.498 2158.73 151.388 2181.5 144.813" stroke="#FFAE00" stroke-width="10" stroke-linecap="square" stroke-dasharray="21 21"/>
<defs>
<filter id="filter0_f_421_1521" x="221.588" y="15.7031" width="506.209" height="211.209" filterUnits="userSpaceOnUse" color-interpolation-filters="sRGB">
<feFlood flood-opacity="0" result="BackgroundImageFix"/>
<feBlend mode="normal" in="SourceGraphic" in2="BackgroundImageFix" result="shape"/>
<feGaussianBlur stdDeviation="4" result="effect1_foregroundBlur_421_1521"/>
</filter>
<filter id="filter1_f_421_1521" x="589.667" y="143.166" width="799.103" height="361.104" filterUnits="userSpaceOnUse" color-interpolation-filters="sRGB">
<feFlood flood-opacity="0" result="BackgroundImageFix"/>
<feBlend mode="normal" in="SourceGraphic" in2="BackgroundImageFix" result="shape"/>
<feGaussianBlur stdDeviation="4" result="effect1_foregroundBlur_421_1521"/>
</filter>
<filter id="filter2_f_421_1521" x="999.418" y="0.152344" width="801.93" height="172.93" filterUnits="userSpaceOnUse" color-interpolation-filters="sRGB">
<feFlood flood-opacity="0" result="BackgroundImageFix"/>
<feBlend mode="normal" in="SourceGraphic" in2="BackgroundImageFix" result="shape"/>
<feGaussianBlur stdDeviation="4" result="effect1_foregroundBlur_421_1521"/>
</filter>
<filter id="filter3_f_421_1521" x="1510.84" y="200.338" width="579.615" height="278.613" filterUnits="userSpaceOnUse" color-interpolation-filters="sRGB">
<feFlood flood-opacity="0" result="BackgroundImageFix"/>
<feBlend mode="normal" in="SourceGraphic" in2="BackgroundImageFix" result="shape"/>
<feGaussianBlur stdDeviation="4" result="effect1_foregroundBlur_421_1521"/>
</filter>
<filter id="filter4_d_421_1521" x="4" y="113.857" width="2212.46" height="173.143" filterUnits="userSpaceOnUse" color-interpolation-filters="sRGB">
<feFlood flood-opacity="0" result="BackgroundImageFix"/>
<feColorMatrix in="SourceAlpha" type="matrix" values="0 0 0 0 0 0 0 0 0 0 0 0 0 0 0 0 0 0 127 0" result="hardAlpha"/>
<feOffset dy="4"/>
<feGaussianBlur stdDeviation="2"/>
<feComposite in2="hardAlpha" operator="out"/>
<feColorMatrix type="matrix" values="0 0 0 0 0 0 0 0 0 0 0 0 0 0 0 0 0 0 0.25 0"/>
<feBlend mode="normal" in2="BackgroundImageFix" result="effect1_dropShadow_421_1521"/>
<feBlend mode="normal" in="SourceGraphic" in2="effect1_dropShadow_421_1521" result="shape"/>
</filter>
<filter id="filter5_f_421_1521" x="0" y="105.857" width="2220.46" height="181.143" filterUnits="userSpaceOnUse" color-interpolation-filters="sRGB">
<feFlood flood-opacity="0" result="BackgroundImageFix"/>
<feBlend mode="normal" in="SourceGraphic" in2="BackgroundImageFix" result="shape"/>
<feGaussianBlur stdDeviation="4" result="effect1_foregroundBlur_421_1521"/>
</filter>
</defs>
</svg>
