<svg width="475" height="355" viewBox="0 0 475 355" fill="none" xmlns="http://www.w3.org/2000/svg">
<mask id="path-1-outside-1_118_74" maskUnits="userSpaceOnUse" x="0" y="0" width="475" height="355" fill="black">
<rect fill="white" width="475" height="355"/>
<path d="M57.1713 50.6487V113.712H77.0799V50.6487H57.1713ZM30.6265 42.7658L43.8989 27H90.3523L103.625 42.7658V121.595L90.3523 137.36H43.8989L30.6265 121.595V42.7658Z"/>
<path d="M121.134 27H147.678V113.712H167.587V27H194.132V121.595L180.859 137.36H134.406L121.134 121.595V27Z"/>
<path d="M271.366 27L284.639 42.7658V82.1802L271.366 97.946H268.977L287.957 137.36H258.094L239.114 97.946H238.185V137.36L211.641 145.243V27H271.366ZM258.094 50.6487H238.185V74.2973H258.094V50.6487Z"/>
<path d="M141.571 273.671C126.984 300.793 108.274 314.354 85.4409 314.354C68.86 314.354 54.952 307.412 43.7168 293.528C32.5723 279.537 27 262.155 27 241.383C27 226.207 30.5336 212.216 37.6009 199.408C44.6682 186.708 54.5896 176.375 67.365 168.411L68.86 170.994C59.0746 180.681 52.1885 189.775 48.2018 198.278C44.3058 206.565 42.3577 216.467 42.3577 227.983C42.3577 241.329 45.8461 254.19 52.8227 266.568C56.1752 263.877 58.3497 260.433 59.3464 256.235C59.89 254.19 60.1618 249.831 60.1618 243.158V194.242L97.6728 156.303C111.082 164.375 124.402 168.411 137.63 168.411H138.446L121.049 188.107C112.26 186.277 102.792 182.51 92.6441 176.806V291.752H95.2264C102.022 291.752 109.497 289.869 117.651 286.102C125.625 282.443 132.919 277.33 139.533 270.765L141.571 273.671ZM78.9173 184.394V219.588C78.9173 224.431 78.8267 228.413 78.6455 231.535C78.5549 234.656 78.419 236.97 78.2378 238.477C78.0566 239.983 77.7394 241.49 77.2864 242.997C76.8334 244.504 76.2444 246.011 75.5196 247.517C74.5229 249.562 72.9826 251.93 70.8987 254.621C68.9053 257.204 66.3231 260.056 63.1518 263.177L55.405 270.926C64.1938 282.873 75.2478 289.654 88.5669 291.268V174.223L78.9173 184.394Z"/>
<path d="M173.57 315C167.046 307.036 159.254 301.654 150.193 298.856V295.304C153.093 293.474 154.95 291.214 155.765 288.524C156.309 286.802 156.581 283.519 156.581 278.676V189.076C156.581 181.003 155.992 175.407 154.814 172.286C153.546 168.842 151.009 165.882 147.203 163.406L148.155 160.016C150.963 161.415 153.636 163.03 156.173 164.859C158.71 166.581 161.111 168.626 163.376 170.994C168.632 163.891 175.744 158.994 184.714 156.303L185.801 160.016C181.543 163.568 178.825 167.12 177.647 170.671C176.469 173.9 175.88 179.712 175.88 188.107V289.654L185.258 297.403L189.199 293.851L191.781 297.403L173.57 315Z"/>
<path d="M218.154 198.924L234.056 215.713L227.532 222.655V288.201L236.094 296.434L249.685 281.904V222.655L242.89 215.713L258.655 198.924L274.692 215.713L268.441 222.655V283.196C268.441 291.806 270.162 296.111 273.605 296.111C274.602 296.111 276.006 295.358 277.818 293.851L280.672 297.726L261.509 315C260.422 314.247 259.652 313.601 259.199 313.063C257.296 311.341 255.71 309.726 254.442 308.219C253.173 306.605 252.222 305.044 251.588 303.538C250.319 300.309 249.685 295.842 249.685 290.138V287.716L224.542 315C216.931 306.928 209.864 301.17 203.34 297.726V294.658C205.786 293.474 207.281 292.129 207.825 290.622C208.369 288.9 208.641 284.918 208.641 278.676V223.14L204.563 219.749L200.894 223.14L198.311 219.749L218.154 198.924Z"/>
<path d="M292.964 293.205C295.319 291.591 296.769 289.6 297.313 287.232C297.856 284.864 298.128 279.644 298.128 271.572V185.362C298.128 179.766 297.63 175.622 296.633 172.931C295.637 169.81 293.326 166.474 289.702 162.922L290.925 160.016C293.009 160.769 295.229 162.007 297.585 163.729C299.94 165.344 302.432 167.389 305.06 169.864C306.781 167.711 308.412 165.882 309.952 164.375C311.583 162.868 313.259 161.63 314.981 160.662C316.702 159.586 318.515 158.725 320.417 158.079C322.411 157.433 324.63 156.841 327.077 156.303L327.62 158.725C323.543 161.738 320.734 165.182 319.194 169.057C317.835 172.931 317.155 178.905 317.155 186.977V226.207L344.745 198.924C350.544 204.951 354.077 209.74 355.346 213.292C356.796 216.844 357.521 223.355 357.521 232.826V295.627C345.651 300.686 336.002 307.143 328.572 315C319.602 305.098 307.732 298.641 292.964 295.627V293.205ZM317.155 286.102L338.493 296.919V236.055C338.493 231.104 338.221 227.391 337.678 224.916C336.862 221.794 335.141 218.835 332.513 216.036L317.155 231.696V286.102Z"/>
<path d="M396.179 271.411L378.239 259.787V219.104C384.4 216.844 389.338 214.26 393.053 211.355C394.865 209.848 396.632 208.072 398.354 206.027C400.166 203.982 401.842 201.614 403.382 198.924C412.443 204.52 420.733 207.318 428.254 207.318C434.687 207.318 437.903 204.843 437.903 199.892C437.903 198.708 437.632 197.632 437.088 196.663C436.635 195.695 436.137 194.78 435.593 193.919C435.049 192.95 434.551 192.035 434.098 191.174C433.735 190.206 433.6 189.183 433.69 188.107C433.69 183.802 435.593 181.649 439.398 181.649C443.838 181.649 446.058 184.663 446.058 190.69C446.058 196.502 443.43 203.659 438.175 212.162L421.73 238.961L441.573 252.684V297.403C431.606 300.847 422.727 306.713 414.935 315C407.143 309.188 399.849 306.282 393.053 306.282C386.53 306.282 380.233 309.188 374.162 315L371.58 312.417L396.179 271.411ZM410.857 257.527L390.199 291.914C394.911 289.977 399.215 289.008 403.111 289.008C408.728 289.008 415.071 291.268 422.138 295.788V264.953L410.857 257.527ZM406.644 254.137L424.72 223.786C423.452 223.893 422.228 224.001 421.051 224.108C419.873 224.108 418.74 224.108 417.653 224.108C410.042 224.108 403.201 221.687 397.131 216.844V247.517L406.644 254.137Z"/>
</mask>
<path d="M57.1713 50.6487V113.712H77.0799V50.6487H57.1713ZM30.6265 42.7658L43.8989 27H90.3523L103.625 42.7658V121.595L90.3523 137.36H43.8989L30.6265 121.595V42.7658Z" fill="white"/>
<path d="M121.134 27H147.678V113.712H167.587V27H194.132V121.595L180.859 137.36H134.406L121.134 121.595V27Z" fill="white"/>
<path d="M271.366 27L284.639 42.7658V82.1802L271.366 97.946H268.977L287.957 137.36H258.094L239.114 97.946H238.185V137.36L211.641 145.243V27H271.366ZM258.094 50.6487H238.185V74.2973H258.094V50.6487Z" fill="white"/>
<path d="M141.571 273.671C126.984 300.793 108.274 314.354 85.4409 314.354C68.86 314.354 54.952 307.412 43.7168 293.528C32.5723 279.537 27 262.155 27 241.383C27 226.207 30.5336 212.216 37.6009 199.408C44.6682 186.708 54.5896 176.375 67.365 168.411L68.86 170.994C59.0746 180.681 52.1885 189.775 48.2018 198.278C44.3058 206.565 42.3577 216.467 42.3577 227.983C42.3577 241.329 45.8461 254.19 52.8227 266.568C56.1752 263.877 58.3497 260.433 59.3464 256.235C59.89 254.19 60.1618 249.831 60.1618 243.158V194.242L97.6728 156.303C111.082 164.375 124.402 168.411 137.63 168.411H138.446L121.049 188.107C112.26 186.277 102.792 182.51 92.6441 176.806V291.752H95.2264C102.022 291.752 109.497 289.869 117.651 286.102C125.625 282.443 132.919 277.33 139.533 270.765L141.571 273.671ZM78.9173 184.394V219.588C78.9173 224.431 78.8267 228.413 78.6455 231.535C78.5549 234.656 78.419 236.97 78.2378 238.477C78.0566 239.983 77.7394 241.49 77.2864 242.997C76.8334 244.504 76.2444 246.011 75.5196 247.517C74.5229 249.562 72.9826 251.93 70.8987 254.621C68.9053 257.204 66.3231 260.056 63.1518 263.177L55.405 270.926C64.1938 282.873 75.2478 289.654 88.5669 291.268V174.223L78.9173 184.394Z" fill="white"/>
<path d="M173.57 315C167.046 307.036 159.254 301.654 150.193 298.856V295.304C153.093 293.474 154.95 291.214 155.765 288.524C156.309 286.802 156.581 283.519 156.581 278.676V189.076C156.581 181.003 155.992 175.407 154.814 172.286C153.546 168.842 151.009 165.882 147.203 163.406L148.155 160.016C150.963 161.415 153.636 163.03 156.173 164.859C158.71 166.581 161.111 168.626 163.376 170.994C168.632 163.891 175.744 158.994 184.714 156.303L185.801 160.016C181.543 163.568 178.825 167.12 177.647 170.671C176.469 173.9 175.88 179.712 175.88 188.107V289.654L185.258 297.403L189.199 293.851L191.781 297.403L173.57 315Z" fill="white"/>
<path d="M218.154 198.924L234.056 215.713L227.532 222.655V288.201L236.094 296.434L249.685 281.904V222.655L242.89 215.713L258.655 198.924L274.692 215.713L268.441 222.655V283.196C268.441 291.806 270.162 296.111 273.605 296.111C274.602 296.111 276.006 295.358 277.818 293.851L280.672 297.726L261.509 315C260.422 314.247 259.652 313.601 259.199 313.063C257.296 311.341 255.71 309.726 254.442 308.219C253.173 306.605 252.222 305.044 251.588 303.538C250.319 300.309 249.685 295.842 249.685 290.138V287.716L224.542 315C216.931 306.928 209.864 301.17 203.34 297.726V294.658C205.786 293.474 207.281 292.129 207.825 290.622C208.369 288.9 208.641 284.918 208.641 278.676V223.14L204.563 219.749L200.894 223.14L198.311 219.749L218.154 198.924Z" fill="white"/>
<path d="M292.964 293.205C295.319 291.591 296.769 289.6 297.313 287.232C297.856 284.864 298.128 279.644 298.128 271.572V185.362C298.128 179.766 297.63 175.622 296.633 172.931C295.637 169.81 293.326 166.474 289.702 162.922L290.925 160.016C293.009 160.769 295.229 162.007 297.585 163.729C299.94 165.344 302.432 167.389 305.06 169.864C306.781 167.711 308.412 165.882 309.952 164.375C311.583 162.868 313.259 161.63 314.981 160.662C316.702 159.586 318.515 158.725 320.417 158.079C322.411 157.433 324.63 156.841 327.077 156.303L327.62 158.725C323.543 161.738 320.734 165.182 319.194 169.057C317.835 172.931 317.155 178.905 317.155 186.977V226.207L344.745 198.924C350.544 204.951 354.077 209.74 355.346 213.292C356.796 216.844 357.521 223.355 357.521 232.826V295.627C345.651 300.686 336.002 307.143 328.572 315C319.602 305.098 307.732 298.641 292.964 295.627V293.205ZM317.155 286.102L338.493 296.919V236.055C338.493 231.104 338.221 227.391 337.678 224.916C336.862 221.794 335.141 218.835 332.513 216.036L317.155 231.696V286.102Z" fill="white"/>
<path d="M396.179 271.411L378.239 259.787V219.104C384.4 216.844 389.338 214.26 393.053 211.355C394.865 209.848 396.632 208.072 398.354 206.027C400.166 203.982 401.842 201.614 403.382 198.924C412.443 204.52 420.733 207.318 428.254 207.318C434.687 207.318 437.903 204.843 437.903 199.892C437.903 198.708 437.632 197.632 437.088 196.663C436.635 195.695 436.137 194.78 435.593 193.919C435.049 192.95 434.551 192.035 434.098 191.174C433.735 190.206 433.6 189.183 433.69 188.107C433.69 183.802 435.593 181.649 439.398 181.649C443.838 181.649 446.058 184.663 446.058 190.69C446.058 196.502 443.43 203.659 438.175 212.162L421.73 238.961L441.573 252.684V297.403C431.606 300.847 422.727 306.713 414.935 315C407.143 309.188 399.849 306.282 393.053 306.282C386.53 306.282 380.233 309.188 374.162 315L371.58 312.417L396.179 271.411ZM410.857 257.527L390.199 291.914C394.911 289.977 399.215 289.008 403.111 289.008C408.728 289.008 415.071 291.268 422.138 295.788V264.953L410.857 257.527ZM406.644 254.137L424.72 223.786C423.452 223.893 422.228 224.001 421.051 224.108C419.873 224.108 418.74 224.108 417.653 224.108C410.042 224.108 403.201 221.687 397.131 216.844V247.517L406.644 254.137Z" fill="white"/>
<path d="M57.1713 50.6487V113.712H77.0799V50.6487H57.1713ZM30.6265 42.7658L43.8989 27H90.3523L103.625 42.7658V121.595L90.3523 137.36H43.8989L30.6265 121.595V42.7658Z" stroke="#FA891A" stroke-opacity="0.89" stroke-width="54" mask="url(#path-1-outside-1_118_74)"/>
<path d="M121.134 27H147.678V113.712H167.587V27H194.132V121.595L180.859 137.36H134.406L121.134 121.595V27Z" stroke="#FA891A" stroke-opacity="0.89" stroke-width="54" mask="url(#path-1-outside-1_118_74)"/>
<path d="M271.366 27L284.639 42.7658V82.1802L271.366 97.946H268.977L287.957 137.36H258.094L239.114 97.946H238.185V137.36L211.641 145.243V27H271.366ZM258.094 50.6487H238.185V74.2973H258.094V50.6487Z" stroke="#FA891A" stroke-opacity="0.89" stroke-width="54" mask="url(#path-1-outside-1_118_74)"/>
<path d="M141.571 273.671C126.984 300.793 108.274 314.354 85.4409 314.354C68.86 314.354 54.952 307.412 43.7168 293.528C32.5723 279.537 27 262.155 27 241.383C27 226.207 30.5336 212.216 37.6009 199.408C44.6682 186.708 54.5896 176.375 67.365 168.411L68.86 170.994C59.0746 180.681 52.1885 189.775 48.2018 198.278C44.3058 206.565 42.3577 216.467 42.3577 227.983C42.3577 241.329 45.8461 254.19 52.8227 266.568C56.1752 263.877 58.3497 260.433 59.3464 256.235C59.89 254.19 60.1618 249.831 60.1618 243.158V194.242L97.6728 156.303C111.082 164.375 124.402 168.411 137.63 168.411H138.446L121.049 188.107C112.26 186.277 102.792 182.51 92.6441 176.806V291.752H95.2264C102.022 291.752 109.497 289.869 117.651 286.102C125.625 282.443 132.919 277.33 139.533 270.765L141.571 273.671ZM78.9173 184.394V219.588C78.9173 224.431 78.8267 228.413 78.6455 231.535C78.5549 234.656 78.419 236.97 78.2378 238.477C78.0566 239.983 77.7394 241.49 77.2864 242.997C76.8334 244.504 76.2444 246.011 75.5196 247.517C74.5229 249.562 72.9826 251.93 70.8987 254.621C68.9053 257.204 66.3231 260.056 63.1518 263.177L55.405 270.926C64.1938 282.873 75.2478 289.654 88.5669 291.268V174.223L78.9173 184.394Z" stroke="#FA891A" stroke-opacity="0.89" stroke-width="54" mask="url(#path-1-outside-1_118_74)"/>
<path d="M173.57 315C167.046 307.036 159.254 301.654 150.193 298.856V295.304C153.093 293.474 154.95 291.214 155.765 288.524C156.309 286.802 156.581 283.519 156.581 278.676V189.076C156.581 181.003 155.992 175.407 154.814 172.286C153.546 168.842 151.009 165.882 147.203 163.406L148.155 160.016C150.963 161.415 153.636 163.03 156.173 164.859C158.71 166.581 161.111 168.626 163.376 170.994C168.632 163.891 175.744 158.994 184.714 156.303L185.801 160.016C181.543 163.568 178.825 167.12 177.647 170.671C176.469 173.9 175.88 179.712 175.88 188.107V289.654L185.258 297.403L189.199 293.851L191.781 297.403L173.57 315Z" stroke="#FA891A" stroke-opacity="0.89" stroke-width="54" mask="url(#path-1-outside-1_118_74)"/>
<path d="M218.154 198.924L234.056 215.713L227.532 222.655V288.201L236.094 296.434L249.685 281.904V222.655L242.89 215.713L258.655 198.924L274.692 215.713L268.441 222.655V283.196C268.441 291.806 270.162 296.111 273.605 296.111C274.602 296.111 276.006 295.358 277.818 293.851L280.672 297.726L261.509 315C260.422 314.247 259.652 313.601 259.199 313.063C257.296 311.341 255.71 309.726 254.442 308.219C253.173 306.605 252.222 305.044 251.588 303.538C250.319 300.309 249.685 295.842 249.685 290.138V287.716L224.542 315C216.931 306.928 209.864 301.17 203.34 297.726V294.658C205.786 293.474 207.281 292.129 207.825 290.622C208.369 288.9 208.641 284.918 208.641 278.676V223.14L204.563 219.749L200.894 223.14L198.311 219.749L218.154 198.924Z" stroke="#FA891A" stroke-opacity="0.89" stroke-width="54" mask="url(#path-1-outside-1_118_74)"/>
<path d="M292.964 293.205C295.319 291.591 296.769 289.6 297.313 287.232C297.856 284.864 298.128 279.644 298.128 271.572V185.362C298.128 179.766 297.63 175.622 296.633 172.931C295.637 169.81 293.326 166.474 289.702 162.922L290.925 160.016C293.009 160.769 295.229 162.007 297.585 163.729C299.94 165.344 302.432 167.389 305.06 169.864C306.781 167.711 308.412 165.882 309.952 164.375C311.583 162.868 313.259 161.63 314.981 160.662C316.702 159.586 318.515 158.725 320.417 158.079C322.411 157.433 324.63 156.841 327.077 156.303L327.62 158.725C323.543 161.738 320.734 165.182 319.194 169.057C317.835 172.931 317.155 178.905 317.155 186.977V226.207L344.745 198.924C350.544 204.951 354.077 209.74 355.346 213.292C356.796 216.844 357.521 223.355 357.521 232.826V295.627C345.651 300.686 336.002 307.143 328.572 315C319.602 305.098 307.732 298.641 292.964 295.627V293.205ZM317.155 286.102L338.493 296.919V236.055C338.493 231.104 338.221 227.391 337.678 224.916C336.862 221.794 335.141 218.835 332.513 216.036L317.155 231.696V286.102Z" stroke="#FA891A" stroke-opacity="0.89" stroke-width="54" mask="url(#path-1-outside-1_118_74)"/>
<path d="M396.179 271.411L378.239 259.787V219.104C384.4 216.844 389.338 214.26 393.053 211.355C394.865 209.848 396.632 208.072 398.354 206.027C400.166 203.982 401.842 201.614 403.382 198.924C412.443 204.52 420.733 207.318 428.254 207.318C434.687 207.318 437.903 204.843 437.903 199.892C437.903 198.708 437.632 197.632 437.088 196.663C436.635 195.695 436.137 194.78 435.593 193.919C435.049 192.95 434.551 192.035 434.098 191.174C433.735 190.206 433.6 189.183 433.69 188.107C433.69 183.802 435.593 181.649 439.398 181.649C443.838 181.649 446.058 184.663 446.058 190.69C446.058 196.502 443.43 203.659 438.175 212.162L421.73 238.961L441.573 252.684V297.403C431.606 300.847 422.727 306.713 414.935 315C407.143 309.188 399.849 306.282 393.053 306.282C386.53 306.282 380.233 309.188 374.162 315L371.58 312.417L396.179 271.411ZM410.857 257.527L390.199 291.914C394.911 289.977 399.215 289.008 403.111 289.008C408.728 289.008 415.071 291.268 422.138 295.788V264.953L410.857 257.527ZM406.644 254.137L424.72 223.786C423.452 223.893 422.228 224.001 421.051 224.108C419.873 224.108 418.74 224.108 417.653 224.108C410.042 224.108 403.201 221.687 397.131 216.844V247.517L406.644 254.137Z" stroke="#FA891A" stroke-opacity="0.89" stroke-width="54" mask="url(#path-1-outside-1_118_74)"/>
</svg>
