<svg width="927" height="2091" viewBox="0 0 927 2091" fill="none" xmlns="http://www.w3.org/2000/svg">
<rect x="7.5" y="2069.54" width="2052.04" height="912" transform="rotate(-90 7.5 2069.54)" fill="#F5610D" fill-opacity="0.5" stroke="#F8861E" stroke-width="9"/>
<path d="M502.617 1831.37C472.885 1726.75 443.632 1621.92 409.703 1521.49C398.116 1487.19 385.11 1453.65 374.156 1418.86" stroke="#D1550C" stroke-width="40" stroke-linecap="square"/>
<g filter="url(#filter0_f_1077_120)">
<path d="M502.617 1831.37C472.885 1726.75 443.632 1621.92 409.703 1521.49C398.116 1487.19 385.11 1453.65 374.156 1418.86" stroke="#D1550C" stroke-width="40" stroke-linecap="square"/>
</g>
<path d="M486.67 1486.36C555.805 1237.81 656.578 1023.25 747.136 800.082" stroke="#D1550C" stroke-width="40" stroke-linecap="square"/>
<g filter="url(#filter1_f_1077_120)">
<path d="M486.67 1486.36C555.805 1237.81 656.578 1023.25 747.136 800.082" stroke="#D1550C" stroke-width="40" stroke-linecap="square"/>
</g>
<path d="M458.319 1105.72C457.573 1091.54 455.218 1079.69 452.893 1065.82C441.242 996.351 430.239 926.496 419.794 856.379C397.728 708.245 380.066 558.08 358.208 410.063" stroke="#D1550C" stroke-width="40" stroke-linecap="square"/>
<g filter="url(#filter2_f_1077_120)">
<path d="M458.319 1105.72C457.573 1091.54 455.218 1079.69 452.893 1065.82C441.242 996.351 430.239 926.496 419.794 856.379C397.728 708.245 380.066 558.08 358.208 410.063" stroke="#D1550C" stroke-width="40" stroke-linecap="square"/>
</g>
<path d="M538.939 621.012C607.696 468.51 675.478 316.468 725.873 140.992" stroke="#D1550C" stroke-width="40" stroke-linecap="square"/>
<g filter="url(#filter3_f_1077_120)">
<path d="M538.939 621.012C607.696 468.51 675.478 316.468 725.873 140.992" stroke="#D1550C" stroke-width="40" stroke-linecap="square"/>
</g>
<g filter="url(#filter4_d_1077_120)">
<path d="M488.207 2040.41C488.207 2016.03 492.619 1978.67 501.207 1945.99C511.896 1905.31 513.165 1843.25 512.155 1809.14C509.013 1703.06 483.931 1622.15 480.523 1516C476.292 1384.22 468.941 1255.48 459.312 1124.62C447.425 963.1 494.729 822.759 523.489 675.451C538.101 600.612 553.031 518.454 555.578 438.533C557.045 392.519 549.995 345.315 542.117 302.013C534.147 258.201 473.155 106.157 473.155 50.7367" stroke="#F8861E" stroke-width="50" stroke-linecap="square"/>
</g>
<g filter="url(#filter5_f_1077_120)">
<path d="M488.207 2040.41C488.207 2016.03 492.619 1978.67 501.207 1945.99C511.896 1905.31 513.165 1843.25 512.155 1809.14C509.013 1703.06 483.931 1622.15 480.523 1516C476.292 1384.22 468.941 1255.48 459.312 1124.62C447.425 963.1 494.729 822.759 523.489 675.451C538.101 600.612 553.031 518.454 555.578 438.533C557.045 392.519 549.995 345.315 542.117 302.013C534.147 258.201 473.155 106.157 473.155 50.7367" stroke="#F8861E" stroke-width="50" stroke-linecap="square"/>
</g>
<path d="M488.207 2040.41C488.207 2016.03 492.619 1978.67 501.207 1945.99C511.896 1905.31 513.165 1843.25 512.155 1809.14C509.013 1703.06 483.931 1622.15 480.523 1516C476.292 1384.22 468.941 1255.48 459.312 1124.62C447.425 963.1 494.729 822.759 523.489 675.451C538.101 600.612 553.031 518.454 555.578 438.533C557.045 392.519 549.995 345.315 542.117 302.013C534.147 258.201 473.155 106.157 473.155 50.7367" stroke="#FF9D0B" stroke-width="12" stroke-linecap="square" stroke-dasharray="25 25"/>
<rect x="6" y="2071.04" width="2055.04" height="915" transform="rotate(-90 6 2071.04)" stroke="#F8861E" stroke-width="12"/>
<path d="M549.568 2040L548 2034.34H541.376L539.84 2040H535.616L541.888 2017.66H547.712L554.016 2040H549.568ZM544.832 2021.79H544.576L542.112 2030.91H547.296L544.832 2021.79ZM564.564 2040L558.452 2017.66H563.06L565.844 2028.96L567.476 2036H567.7L569.364 2028.96L572.18 2017.66H576.564L570.452 2040H564.564ZM588.135 2040V2031.84L580.871 2017.66H585.543L588.135 2023.04L590.151 2027.62H590.375L592.423 2023.04L595.047 2017.66H599.559L592.295 2031.84V2040H588.135ZM617.691 2040L616.123 2034.34H609.499L607.963 2040H603.739L610.011 2017.66H615.835L622.139 2040H617.691ZM612.955 2021.79H612.699L610.235 2030.91H615.419L612.955 2021.79ZM634.894 2030.21L632.558 2033.28V2040H628.366V2017.66H632.558V2027.71H632.75L635.342 2024L640.046 2017.66H644.782L637.774 2027.07L645.102 2040H640.366L634.894 2030.21ZM660.418 2021.12V2040H656.258V2021.12H649.538V2017.66H667.138V2021.12H660.418ZM705.385 2040V2035.68H695.049V2032.1L704.169 2017.66H709.385V2032.42H712.393V2035.68H709.385V2040H705.385ZM698.473 2032.42H705.385V2021.76H705.129L698.473 2032.42ZM726.46 2040.35C725.351 2040.35 724.562 2040.12 724.092 2039.65C723.623 2039.18 723.388 2038.6 723.388 2037.92V2036.96C723.388 2036.28 723.623 2035.7 724.092 2035.23C724.562 2034.76 725.351 2034.53 726.46 2034.53C727.57 2034.53 728.359 2034.76 728.828 2035.23C729.298 2035.7 729.532 2036.28 729.532 2036.96V2037.92C729.532 2038.6 729.298 2039.18 728.828 2039.65C728.359 2040.12 727.57 2040.35 726.46 2040.35ZM749.168 2040.38C747.717 2040.38 746.459 2040.13 745.392 2039.62C744.325 2039.08 743.44 2038.33 742.736 2037.34C742.053 2036.36 741.541 2035.16 741.2 2033.73C740.88 2032.3 740.72 2030.67 740.72 2028.83C740.72 2027.02 740.88 2025.4 741.2 2023.97C741.541 2022.52 742.053 2021.3 742.736 2020.32C743.44 2019.34 744.325 2018.59 745.392 2018.08C746.459 2017.55 747.717 2017.28 749.168 2017.28C752.069 2017.28 754.203 2018.29 755.568 2020.32C756.933 2022.35 757.616 2025.18 757.616 2028.83C757.616 2032.48 756.933 2035.32 755.568 2037.34C754.203 2039.37 752.069 2040.38 749.168 2040.38ZM749.168 2037.02C750.704 2037.02 751.781 2036.48 752.4 2035.39C753.04 2034.28 753.36 2032.76 753.36 2030.82V2026.85C753.36 2024.91 753.04 2023.39 752.4 2022.3C751.781 2021.19 750.704 2020.64 749.168 2020.64C747.632 2020.64 746.544 2021.19 745.904 2022.3C745.285 2023.39 744.976 2024.91 744.976 2026.85V2030.82C744.976 2032.76 745.285 2034.28 745.904 2035.39C746.544 2036.48 747.632 2037.02 749.168 2037.02ZM749.168 2030.72C748.421 2030.72 747.899 2030.57 747.6 2030.27C747.323 2029.97 747.184 2029.61 747.184 2029.18V2028.48C747.184 2028.05 747.323 2027.69 747.6 2027.39C747.899 2027.09 748.421 2026.94 749.168 2026.94C749.915 2026.94 750.427 2027.09 750.704 2027.39C751.003 2027.69 751.152 2028.05 751.152 2028.48V2029.18C751.152 2029.61 751.003 2029.97 750.704 2030.27C750.427 2030.57 749.915 2030.72 749.168 2030.72Z" fill="white"/>
<rect x="12" y="12" width="910" height="97" fill="#F5610D" fill-opacity="0.5"/>
<path d="M121.52 49.68V78H115.28V49.68H105.2V44.496H131.6V49.68H121.52ZM157.357 63.6H147.565V78H141.277V44.496H147.565V58.416H157.357V44.496H163.645V78H157.357V63.6ZM176.106 78V44.496H197.274V49.68H182.394V58.416H196.746V63.6H182.394V72.816H197.274V78H176.106ZM261.797 78L259.445 69.504H249.509L247.205 78H240.869L250.277 44.496H259.013L268.469 78H261.797ZM254.693 50.688H254.309L250.613 64.368H258.389L254.693 50.688ZM284.29 78L275.122 44.496H282.034L286.21 61.44L288.658 72H288.994L291.49 61.44L295.714 44.496H302.29L293.122 78H284.29ZM319.648 78V65.76L308.752 44.496H315.76L319.648 52.56L322.672 59.424H323.008L326.08 52.56L330.016 44.496H336.784L325.888 65.76V78H319.648ZM363.981 78L361.629 69.504H351.693L349.389 78H343.053L352.461 44.496H361.197L370.653 78H363.981ZM356.877 50.688H356.493L352.797 64.368H360.573L356.877 50.688ZM389.786 63.312L386.282 67.92V78H379.994V44.496H386.282V59.568H386.57L390.458 54L397.514 44.496H404.618L394.106 58.608L405.098 78H397.994L389.786 63.312ZM428.071 49.68V78H421.831V49.68H411.751V44.496H438.151V49.68H428.071ZM499.698 62.496L499.986 52.8H499.554L493.074 70.032L486.594 52.8H486.162L486.45 62.496V78H480.978V44.496H488.466L493.122 56.832H493.458L498.162 44.496H505.17V78H499.698V62.496ZM521.999 44.496V65.376C521.999 66.624 522.031 67.744 522.095 68.736C522.191 69.728 522.399 70.576 522.719 71.28C523.071 71.952 523.583 72.48 524.255 72.864C524.959 73.248 525.919 73.44 527.135 73.44C528.351 73.44 529.295 73.248 529.967 72.864C530.671 72.48 531.183 71.952 531.503 71.28C531.855 70.576 532.063 69.728 532.127 68.736C532.223 67.744 532.271 66.624 532.271 65.376V44.496H538.559V64.416C538.559 66.784 538.415 68.848 538.127 70.608C537.839 72.368 537.279 73.84 536.447 75.024C535.615 76.208 534.447 77.104 532.943 77.712C531.471 78.288 529.535 78.576 527.135 78.576C524.735 78.576 522.783 78.288 521.279 77.712C519.807 77.104 518.655 76.208 517.823 75.024C516.991 73.84 516.431 72.368 516.143 70.608C515.855 68.848 515.711 66.784 515.711 64.416V44.496H521.999ZM551.596 78V44.496H557.884V72.816H572.716V78H551.596ZM598.378 49.68V78H592.138V49.68H582.058V44.496H608.458V49.68H598.378ZM618.663 78V73.296H626.199V49.2H618.663V44.496H639.975V49.2H632.439V73.296H639.975V78H618.663ZM658.964 78L649.796 44.496H656.708L660.884 61.44L663.332 72H663.668L666.164 61.44L670.388 44.496H676.964L667.796 78H658.964ZM687.025 78V44.496H708.193V49.68H693.313V58.416H707.665V63.6H693.313V72.816H708.193V78H687.025ZM727.23 78H720.942V44.496H733.662C736.926 44.496 739.422 45.424 741.15 47.28C742.878 49.136 743.742 51.664 743.742 54.864C743.742 57.328 743.166 59.408 742.014 61.104C740.894 62.768 739.278 63.824 737.166 64.272L744.318 78H737.406L731.022 64.992H727.23V78ZM732.366 60.096C734.062 60.096 735.278 59.76 736.014 59.088C736.75 58.384 737.118 57.28 737.118 55.776V53.952C737.118 52.448 736.75 51.36 736.014 50.688C735.278 49.984 734.062 49.632 732.366 49.632H727.23V60.096H732.366ZM765.18 78.576C762.3 78.576 759.836 78.08 757.788 77.088C755.772 76.096 754.124 74.784 752.844 73.152L756.636 69.216C757.884 70.656 759.228 71.728 760.668 72.432C762.14 73.104 763.708 73.44 765.372 73.44C767.292 73.44 768.764 73.008 769.788 72.144C770.812 71.28 771.324 70.032 771.324 68.4C771.324 67.056 770.94 66.048 770.172 65.376C769.404 64.672 768.108 64.176 766.284 63.888L762.732 63.312C759.628 62.768 757.42 61.648 756.108 59.952C754.796 58.224 754.14 56.192 754.14 53.856C754.14 50.656 755.18 48.208 757.26 46.512C759.34 44.784 762.22 43.92 765.9 43.92C768.524 43.92 770.78 44.336 772.668 45.168C774.588 46 776.124 47.136 777.276 48.576L773.58 52.512C772.684 51.456 771.612 50.624 770.364 50.016C769.116 49.376 767.644 49.056 765.948 49.056C762.3 49.056 760.476 50.56 760.476 53.568C760.476 54.848 760.86 55.824 761.628 56.496C762.396 57.168 763.708 57.664 765.564 57.984L769.068 58.608C771.98 59.152 774.14 60.224 775.548 61.824C776.956 63.424 777.66 65.472 777.66 67.968C777.66 69.536 777.388 70.976 776.844 72.288C776.3 73.568 775.5 74.688 774.444 75.648C773.388 76.576 772.076 77.296 770.508 77.808C768.972 78.32 767.196 78.576 765.18 78.576ZM789.209 78V44.496H810.377V49.68H795.497V58.416H809.849V63.6H795.497V72.816H810.377V78H789.209Z" fill="white"/>
<defs>
<filter id="filter0_f_1077_120" x="341.073" y="1385.77" width="194.25" height="478.305" filterUnits="userSpaceOnUse" color-interpolation-filters="sRGB">
<feFlood flood-opacity="0" result="BackgroundImageFix"/>
<feBlend mode="normal" in="SourceGraphic" in2="BackgroundImageFix" result="shape"/>
<feGaussianBlur stdDeviation="4" result="effect1_foregroundBlur_1077_120"/>
</filter>
<filter id="filter1_f_1077_120" x="454.042" y="766.029" width="327.146" height="752.959" filterUnits="userSpaceOnUse" color-interpolation-filters="sRGB">
<feFlood flood-opacity="0" result="BackgroundImageFix"/>
<feBlend mode="normal" in="SourceGraphic" in2="BackgroundImageFix" result="shape"/>
<feGaussianBlur stdDeviation="4" result="effect1_foregroundBlur_1077_120"/>
</filter>
<filter id="filter2_f_1077_120" x="327.501" y="379.356" width="159.842" height="755.384" filterUnits="userSpaceOnUse" color-interpolation-filters="sRGB">
<feFlood flood-opacity="0" result="BackgroundImageFix"/>
<feBlend mode="normal" in="SourceGraphic" in2="BackgroundImageFix" result="shape"/>
<feGaussianBlur stdDeviation="4" result="effect1_foregroundBlur_1077_120"/>
</filter>
<filter id="filter3_f_1077_120" x="504.486" y="108.248" width="254.13" height="547.217" filterUnits="userSpaceOnUse" color-interpolation-filters="sRGB">
<feFlood flood-opacity="0" result="BackgroundImageFix"/>
<feBlend mode="normal" in="SourceGraphic" in2="BackgroundImageFix" result="shape"/>
<feGaussianBlur stdDeviation="4" result="effect1_foregroundBlur_1077_120"/>
</filter>
<filter id="filter4_d_1077_120" x="428.454" y="25.7363" width="156.318" height="2047.67" filterUnits="userSpaceOnUse" color-interpolation-filters="sRGB">
<feFlood flood-opacity="0" result="BackgroundImageFix"/>
<feColorMatrix in="SourceAlpha" type="matrix" values="0 0 0 0 0 0 0 0 0 0 0 0 0 0 0 0 0 0 127 0" result="hardAlpha"/>
<feOffset dy="4"/>
<feGaussianBlur stdDeviation="2"/>
<feComposite in2="hardAlpha" operator="out"/>
<feColorMatrix type="matrix" values="0 0 0 0 0 0 0 0 0 0 0 0 0 0 0 0 0 0 0.25 0"/>
<feBlend mode="normal" in2="BackgroundImageFix" result="effect1_dropShadow_1077_120"/>
<feBlend mode="normal" in="SourceGraphic" in2="effect1_dropShadow_1077_120" result="shape"/>
</filter>
<filter id="filter5_f_1077_120" x="407.454" y="0.736328" width="198.318" height="2089.67" filterUnits="userSpaceOnUse" color-interpolation-filters="sRGB">
<feFlood flood-opacity="0" result="BackgroundImageFix"/>
<feBlend mode="normal" in="SourceGraphic" in2="BackgroundImageFix" result="shape"/>
<feGaussianBlur stdDeviation="12.5" result="effect1_foregroundBlur_1077_120"/>
</filter>
</defs>
</svg>
